<?xml version="1.0" encoding="utf-8" standalone="no"?>
<!DOCTYPE svg PUBLIC "-//W3C//DTD SVG 1.1//EN"
  "http://www.w3.org/Graphics/SVG/1.1/DTD/svg11.dtd">
<svg xmlns:xlink="http://www.w3.org/1999/xlink" width="216pt" height="432pt" viewBox="0 0 216 432" xmlns="http://www.w3.org/2000/svg" version="1.1">
 <metadata>
  <rdf:RDF xmlns:dc="http://purl.org/dc/elements/1.1/" xmlns:cc="http://creativecommons.org/ns#" xmlns:rdf="http://www.w3.org/1999/02/22-rdf-syntax-ns#">
   <cc:Work>
    <dc:type rdf:resource="http://purl.org/dc/dcmitype/StillImage"/>
    <dc:date>2024-09-02T13:20:20.907949</dc:date>
    <dc:format>image/svg+xml</dc:format>
    <dc:creator>
     <cc:Agent>
      <dc:title>Matplotlib v3.8.2, https://matplotlib.org/</dc:title>
     </cc:Agent>
    </dc:creator>
   </cc:Work>
  </rdf:RDF>
 </metadata>
 <defs>
  <style type="text/css">*{stroke-linejoin: round; stroke-linecap: butt}</style>
 </defs>
 <g id="figure_1">
  <g id="patch_1">
   <path d="M 0 432 
L 216 432 
L 216 0 
L 0 0 
z
" style="fill: #ffffff"/>
  </g>
  <g id="axes_1">
   <g id="patch_2">
    <path d="M 27 384.48 
L 194.4 384.48 
L 194.4 51.84 
L 27 51.84 
z
" style="fill: #ffffff"/>
   </g>
   <g id="patch_3">
    <path d="M 27 54.612 
L 186.428571 54.612 
L 186.428571 76.788 
L 27 76.788 
z
" clip-path="url(#p4a8378ed11)" style="fill: #1b59bb"/>
   </g>
   <g id="patch_4">
    <path d="M 27 82.332 
L 186.428571 82.332 
L 186.428571 104.508 
L 27 104.508 
z
" clip-path="url(#p4a8378ed11)" style="fill: #1b59bb"/>
   </g>
   <g id="patch_5">
    <path d="M 27 110.052 
L 186.428571 110.052 
L 186.428571 132.228 
L 27 132.228 
z
" clip-path="url(#p4a8378ed11)" style="fill: #1b59bb"/>
   </g>
   <g id="patch_6">
    <path d="M 27 137.772 
L 186.428571 137.772 
L 186.428571 159.948 
L 27 159.948 
z
" clip-path="url(#p4a8378ed11)" style="fill: #1b59bb"/>
   </g>
   <g id="patch_7">
    <path d="M 27 165.492 
L 186.428571 165.492 
L 186.428571 187.668 
L 27 187.668 
z
" clip-path="url(#p4a8378ed11)" style="fill: #1b59bb"/>
   </g>
   <g id="patch_8">
    <path d="M 27 193.212 
L 186.428571 193.212 
L 186.428571 215.388 
L 27 215.388 
z
" clip-path="url(#p4a8378ed11)" style="fill: #1b59bb"/>
   </g>
   <g id="patch_9">
    <path d="M 27 220.932 
L 186.428571 220.932 
L 186.428571 243.108 
L 27 243.108 
z
" clip-path="url(#p4a8378ed11)" style="fill: #1b59bb"/>
   </g>
   <g id="patch_10">
    <path d="M 27 248.652 
L 186.428571 248.652 
L 186.428571 270.828 
L 27 270.828 
z
" clip-path="url(#p4a8378ed11)" style="fill: #1b59bb"/>
   </g>
   <g id="patch_11">
    <path d="M 27 276.372 
L 186.428571 276.372 
L 186.428571 298.548 
L 27 298.548 
z
" clip-path="url(#p4a8378ed11)" style="fill: #1b59bb"/>
   </g>
   <g id="patch_12">
    <path d="M 27 304.092 
L 186.428571 304.092 
L 186.428571 326.268 
L 27 326.268 
z
" clip-path="url(#p4a8378ed11)" style="fill: #1b59bb"/>
   </g>
   <g id="patch_13">
    <path d="M 27 331.812 
L 186.428571 331.812 
L 186.428571 353.988 
L 27 353.988 
z
" clip-path="url(#p4a8378ed11)" style="fill: #1b59bb"/>
   </g>
   <g id="patch_14">
    <path d="M 27 359.532 
L 186.428571 359.532 
L 186.428571 381.708 
L 27 381.708 
z
" clip-path="url(#p4a8378ed11)" style="fill: #1b59bb"/>
   </g>
   <g id="patch_15">
    <path d="M 27 54.612 
L 125.208 54.612 
L 125.208 76.788 
L 27 76.788 
z
" clip-path="url(#p4a8378ed11)" style="fill: #77c3e1"/>
   </g>
   <g id="patch_16">
    <path d="M 27 82.332 
L 170.485714 82.332 
L 170.485714 104.508 
L 27 104.508 
z
" clip-path="url(#p4a8378ed11)" style="fill: #77c3e1"/>
   </g>
   <g id="patch_17">
    <path d="M 27 110.052 
L 119.628 110.052 
L 119.628 132.228 
L 27 132.228 
z
" clip-path="url(#p4a8378ed11)" style="fill: #77c3e1"/>
   </g>
   <g id="patch_18">
    <path d="M 27 137.772 
L 148.165714 137.772 
L 148.165714 159.948 
L 27 159.948 
z
" clip-path="url(#p4a8378ed11)" style="fill: #77c3e1"/>
   </g>
   <g id="patch_19">
    <path d="M 27 165.492 
L 135.730286 165.492 
L 135.730286 187.668 
L 27 187.668 
z
" clip-path="url(#p4a8378ed11)" style="fill: #77c3e1"/>
   </g>
   <g id="patch_20">
    <path d="M 27 193.212 
L 170.804571 193.212 
L 170.804571 215.388 
L 27 215.388 
z
" clip-path="url(#p4a8378ed11)" style="fill: #77c3e1"/>
   </g>
   <g id="patch_21">
    <path d="M 27 220.932 
L 127.44 220.932 
L 127.44 243.108 
L 27 243.108 
z
" clip-path="url(#p4a8378ed11)" style="fill: #77c3e1"/>
   </g>
   <g id="patch_22">
    <path d="M 27 248.652 
L 162.354857 248.652 
L 162.354857 270.828 
L 27 270.828 
z
" clip-path="url(#p4a8378ed11)" style="fill: #77c3e1"/>
   </g>
   <g id="patch_23">
    <path d="M 27 276.372 
L 142.266857 276.372 
L 142.266857 298.548 
L 27 298.548 
z
" clip-path="url(#p4a8378ed11)" style="fill: #77c3e1"/>
   </g>
   <g id="patch_24">
    <path d="M 27 304.092 
L 175.906286 304.092 
L 175.906286 326.268 
L 27 326.268 
z
" clip-path="url(#p4a8378ed11)" style="fill: #77c3e1"/>
   </g>
   <g id="patch_25">
    <path d="M 27 331.812 
L 155.34 331.812 
L 155.34 353.988 
L 27 353.988 
z
" clip-path="url(#p4a8378ed11)" style="fill: #77c3e1"/>
   </g>
   <g id="patch_26">
    <path d="M 27 359.532 
L 158.050286 359.532 
L 158.050286 381.708 
L 27 381.708 
z
" clip-path="url(#p4a8378ed11)" style="fill: #77c3e1"/>
   </g>
   <g id="patch_27">
    <path d="M 27 54.612 
L 71.64 54.612 
L 71.64 76.788 
L 27 76.788 
z
" clip-path="url(#p4a8378ed11)" style="fill: #e1c631"/>
   </g>
   <g id="patch_28">
    <path d="M 27 82.332 
L 132.860571 82.332 
L 132.860571 104.508 
L 27 104.508 
z
" clip-path="url(#p4a8378ed11)" style="fill: #e1c631"/>
   </g>
   <g id="patch_29">
    <path d="M 27 110.052 
L 83.118857 110.052 
L 83.118857 132.228 
L 27 132.228 
z
" clip-path="url(#p4a8378ed11)" style="fill: #e1c631"/>
   </g>
   <g id="patch_30">
    <path d="M 27 137.772 
L 119.309143 137.772 
L 119.309143 159.948 
L 27 159.948 
z
" clip-path="url(#p4a8378ed11)" style="fill: #e1c631"/>
   </g>
   <g id="patch_31">
    <path d="M 27 165.492 
L 94.278857 165.492 
L 94.278857 187.668 
L 27 187.668 
z
" clip-path="url(#p4a8378ed11)" style="fill: #e1c631"/>
   </g>
   <g id="patch_32">
    <path d="M 27 193.212 
L 144.020571 193.212 
L 144.020571 215.388 
L 27 215.388 
z
" clip-path="url(#p4a8378ed11)" style="fill: #e1c631"/>
   </g>
   <g id="patch_33">
    <path d="M 27 220.932 
L 81.205714 220.932 
L 81.205714 243.108 
L 27 243.108 
z
" clip-path="url(#p4a8378ed11)" style="fill: #e1c631"/>
   </g>
   <g id="patch_34">
    <path d="M 27 248.652 
L 125.845714 248.652 
L 125.845714 270.828 
L 27 270.828 
z
" clip-path="url(#p4a8378ed11)" style="fill: #e1c631"/>
   </g>
   <g id="patch_35">
    <path d="M 27 276.372 
L 100.496571 276.372 
L 100.496571 298.548 
L 27 298.548 
z
" clip-path="url(#p4a8378ed11)" style="fill: #e1c631"/>
   </g>
   <g id="patch_36">
    <path d="M 27 304.092 
L 152.310857 304.092 
L 152.310857 326.268 
L 27 326.268 
z
" clip-path="url(#p4a8378ed11)" style="fill: #e1c631"/>
   </g>
   <g id="patch_37">
    <path d="M 27 331.812 
L 112.294286 331.812 
L 112.294286 353.988 
L 27 353.988 
z
" clip-path="url(#p4a8378ed11)" style="fill: #e1c631"/>
   </g>
   <g id="patch_38">
    <path d="M 27 359.532 
L 109.265143 359.532 
L 109.265143 381.708 
L 27 381.708 
z
" clip-path="url(#p4a8378ed11)" style="fill: #e1c631"/>
   </g>
   <g id="patch_39">
    <path d="M 27 54.612 
L 52.349143 54.612 
L 52.349143 76.788 
L 27 76.788 
z
" clip-path="url(#p4a8378ed11)" style="fill: #e8865c"/>
   </g>
   <g id="patch_40">
    <path d="M 27 82.332 
L 108.786857 82.332 
L 108.786857 104.508 
L 27 104.508 
z
" clip-path="url(#p4a8378ed11)" style="fill: #e8865c"/>
   </g>
   <g id="patch_41">
    <path d="M 27 110.052 
L 62.074286 110.052 
L 62.074286 132.228 
L 27 132.228 
z
" clip-path="url(#p4a8378ed11)" style="fill: #e8865c"/>
   </g>
   <g id="patch_42">
    <path d="M 27 137.772 
L 96.510857 137.772 
L 96.510857 159.948 
L 27 159.948 
z
" clip-path="url(#p4a8378ed11)" style="fill: #e8865c"/>
   </g>
   <g id="patch_43">
    <path d="M 27 165.492 
L 71.321143 165.492 
L 71.321143 187.668 
L 27 187.668 
z
" clip-path="url(#p4a8378ed11)" style="fill: #e8865c"/>
   </g>
   <g id="patch_44">
    <path d="M 27 193.212 
L 117.714857 193.212 
L 117.714857 215.388 
L 27 215.388 
z
" clip-path="url(#p4a8378ed11)" style="fill: #e8865c"/>
   </g>
   <g id="patch_45">
    <path d="M 27 220.932 
L 58.726286 220.932 
L 58.726286 243.108 
L 27 243.108 
z
" clip-path="url(#p4a8378ed11)" style="fill: #e8865c"/>
   </g>
   <g id="patch_46">
    <path d="M 27 248.652 
L 99.380571 248.652 
L 99.380571 270.828 
L 27 270.828 
z
" clip-path="url(#p4a8378ed11)" style="fill: #e8865c"/>
   </g>
   <g id="patch_47">
    <path d="M 27 276.372 
L 79.930286 276.372 
L 79.930286 298.548 
L 27 298.548 
z
" clip-path="url(#p4a8378ed11)" style="fill: #e8865c"/>
   </g>
   <g id="patch_48">
    <path d="M 27 304.092 
L 128.715429 304.092 
L 128.715429 326.268 
L 27 326.268 
z
" clip-path="url(#p4a8378ed11)" style="fill: #e8865c"/>
   </g>
   <g id="patch_49">
    <path d="M 27 331.812 
L 49.798286 331.812 
L 49.798286 353.988 
L 27 353.988 
z
" clip-path="url(#p4a8378ed11)" style="fill: #e8865c"/>
   </g>
   <g id="patch_50">
    <path d="M 27 359.532 
L 45.653143 359.532 
L 45.653143 381.708 
L 27 381.708 
z
" clip-path="url(#p4a8378ed11)" style="fill: #e8865c"/>
   </g>
   <g id="matplotlib.axis_1">
    <g id="xtick_1">
     <g id="line2d_1">
      <defs>
       <path id="m047aa6802b" d="M 0 0 
L 0 3.5 
" style="stroke: #000000; stroke-width: 0.8"/>
      </defs>
      <g>
       <use xlink:href="#m047aa6802b" x="27" y="384.48" style="stroke: #000000; stroke-width: 0.8"/>
      </g>
     </g>
     <g id="text_1">
      <!-- 0.00 -->
      <g transform="translate(15.867188 399.078438) scale(0.1 -0.1)">
       <defs>
        <path id="DejaVuSans-30" d="M 2034 4250 
Q 1547 4250 1301 3770 
Q 1056 3291 1056 2328 
Q 1056 1369 1301 889 
Q 1547 409 2034 409 
Q 2525 409 2770 889 
Q 3016 1369 3016 2328 
Q 3016 3291 2770 3770 
Q 2525 4250 2034 4250 
z
M 2034 4750 
Q 2819 4750 3233 4129 
Q 3647 3509 3647 2328 
Q 3647 1150 3233 529 
Q 2819 -91 2034 -91 
Q 1250 -91 836 529 
Q 422 1150 422 2328 
Q 422 3509 836 4129 
Q 1250 4750 2034 4750 
z
" transform="scale(0.015625)"/>
        <path id="DejaVuSans-2e" d="M 684 794 
L 1344 794 
L 1344 0 
L 684 0 
L 684 794 
z
" transform="scale(0.015625)"/>
       </defs>
       <use xlink:href="#DejaVuSans-30"/>
       <use xlink:href="#DejaVuSans-2e" x="63.623047"/>
       <use xlink:href="#DejaVuSans-30" x="95.410156"/>
       <use xlink:href="#DejaVuSans-30" x="159.033203"/>
      </g>
     </g>
    </g>
    <g id="xtick_2">
     <g id="line2d_2">
      <g>
       <use xlink:href="#m047aa6802b" x="66.857143" y="384.48" style="stroke: #000000; stroke-width: 0.8"/>
      </g>
     </g>
     <g id="text_2">
      <!-- 0.25 -->
      <g transform="translate(55.72433 399.078438) scale(0.1 -0.1)">
       <defs>
        <path id="DejaVuSans-32" d="M 1228 531 
L 3431 531 
L 3431 0 
L 469 0 
L 469 531 
Q 828 903 1448 1529 
Q 2069 2156 2228 2338 
Q 2531 2678 2651 2914 
Q 2772 3150 2772 3378 
Q 2772 3750 2511 3984 
Q 2250 4219 1831 4219 
Q 1534 4219 1204 4116 
Q 875 4013 500 3803 
L 500 4441 
Q 881 4594 1212 4672 
Q 1544 4750 1819 4750 
Q 2544 4750 2975 4387 
Q 3406 4025 3406 3419 
Q 3406 3131 3298 2873 
Q 3191 2616 2906 2266 
Q 2828 2175 2409 1742 
Q 1991 1309 1228 531 
z
" transform="scale(0.015625)"/>
        <path id="DejaVuSans-35" d="M 691 4666 
L 3169 4666 
L 3169 4134 
L 1269 4134 
L 1269 2991 
Q 1406 3038 1543 3061 
Q 1681 3084 1819 3084 
Q 2600 3084 3056 2656 
Q 3513 2228 3513 1497 
Q 3513 744 3044 326 
Q 2575 -91 1722 -91 
Q 1428 -91 1123 -41 
Q 819 9 494 109 
L 494 744 
Q 775 591 1075 516 
Q 1375 441 1709 441 
Q 2250 441 2565 725 
Q 2881 1009 2881 1497 
Q 2881 1984 2565 2268 
Q 2250 2553 1709 2553 
Q 1456 2553 1204 2497 
Q 953 2441 691 2322 
L 691 4666 
z
" transform="scale(0.015625)"/>
       </defs>
       <use xlink:href="#DejaVuSans-30"/>
       <use xlink:href="#DejaVuSans-2e" x="63.623047"/>
       <use xlink:href="#DejaVuSans-32" x="95.410156"/>
       <use xlink:href="#DejaVuSans-35" x="159.033203"/>
      </g>
     </g>
    </g>
    <g id="xtick_3">
     <g id="line2d_3">
      <g>
       <use xlink:href="#m047aa6802b" x="106.714286" y="384.48" style="stroke: #000000; stroke-width: 0.8"/>
      </g>
     </g>
     <g id="text_3">
      <!-- 0.50 -->
      <g transform="translate(95.581473 399.078438) scale(0.1 -0.1)">
       <use xlink:href="#DejaVuSans-30"/>
       <use xlink:href="#DejaVuSans-2e" x="63.623047"/>
       <use xlink:href="#DejaVuSans-35" x="95.410156"/>
       <use xlink:href="#DejaVuSans-30" x="159.033203"/>
      </g>
     </g>
    </g>
    <g id="xtick_4">
     <g id="line2d_4">
      <g>
       <use xlink:href="#m047aa6802b" x="146.571429" y="384.48" style="stroke: #000000; stroke-width: 0.8"/>
      </g>
     </g>
     <g id="text_4">
      <!-- 0.75 -->
      <g transform="translate(135.438616 399.078438) scale(0.1 -0.1)">
       <defs>
        <path id="DejaVuSans-37" d="M 525 4666 
L 3525 4666 
L 3525 4397 
L 1831 0 
L 1172 0 
L 2766 4134 
L 525 4134 
L 525 4666 
z
" transform="scale(0.015625)"/>
       </defs>
       <use xlink:href="#DejaVuSans-30"/>
       <use xlink:href="#DejaVuSans-2e" x="63.623047"/>
       <use xlink:href="#DejaVuSans-37" x="95.410156"/>
       <use xlink:href="#DejaVuSans-35" x="159.033203"/>
      </g>
     </g>
    </g>
    <g id="xtick_5">
     <g id="line2d_5">
      <g>
       <use xlink:href="#m047aa6802b" x="186.428571" y="384.48" style="stroke: #000000; stroke-width: 0.8"/>
      </g>
     </g>
     <g id="text_5">
      <!-- 1.00 -->
      <g transform="translate(175.295759 399.078438) scale(0.1 -0.1)">
       <defs>
        <path id="DejaVuSans-31" d="M 794 531 
L 1825 531 
L 1825 4091 
L 703 3866 
L 703 4441 
L 1819 4666 
L 2450 4666 
L 2450 531 
L 3481 531 
L 3481 0 
L 794 0 
L 794 531 
z
" transform="scale(0.015625)"/>
       </defs>
       <use xlink:href="#DejaVuSans-31"/>
       <use xlink:href="#DejaVuSans-2e" x="63.623047"/>
       <use xlink:href="#DejaVuSans-30" x="95.410156"/>
       <use xlink:href="#DejaVuSans-30" x="159.033203"/>
      </g>
     </g>
    </g>
    <g id="text_6">
     <!-- Residue coverage -->
     <g transform="translate(66.157031 412.756563) scale(0.1 -0.1)">
      <defs>
       <path id="DejaVuSans-52" d="M 2841 2188 
Q 3044 2119 3236 1894 
Q 3428 1669 3622 1275 
L 4263 0 
L 3584 0 
L 2988 1197 
Q 2756 1666 2539 1819 
Q 2322 1972 1947 1972 
L 1259 1972 
L 1259 0 
L 628 0 
L 628 4666 
L 2053 4666 
Q 2853 4666 3247 4331 
Q 3641 3997 3641 3322 
Q 3641 2881 3436 2590 
Q 3231 2300 2841 2188 
z
M 1259 4147 
L 1259 2491 
L 2053 2491 
Q 2509 2491 2742 2702 
Q 2975 2913 2975 3322 
Q 2975 3731 2742 3939 
Q 2509 4147 2053 4147 
L 1259 4147 
z
" transform="scale(0.015625)"/>
       <path id="DejaVuSans-65" d="M 3597 1894 
L 3597 1613 
L 953 1613 
Q 991 1019 1311 708 
Q 1631 397 2203 397 
Q 2534 397 2845 478 
Q 3156 559 3463 722 
L 3463 178 
Q 3153 47 2828 -22 
Q 2503 -91 2169 -91 
Q 1331 -91 842 396 
Q 353 884 353 1716 
Q 353 2575 817 3079 
Q 1281 3584 2069 3584 
Q 2775 3584 3186 3129 
Q 3597 2675 3597 1894 
z
M 3022 2063 
Q 3016 2534 2758 2815 
Q 2500 3097 2075 3097 
Q 1594 3097 1305 2825 
Q 1016 2553 972 2059 
L 3022 2063 
z
" transform="scale(0.015625)"/>
       <path id="DejaVuSans-73" d="M 2834 3397 
L 2834 2853 
Q 2591 2978 2328 3040 
Q 2066 3103 1784 3103 
Q 1356 3103 1142 2972 
Q 928 2841 928 2578 
Q 928 2378 1081 2264 
Q 1234 2150 1697 2047 
L 1894 2003 
Q 2506 1872 2764 1633 
Q 3022 1394 3022 966 
Q 3022 478 2636 193 
Q 2250 -91 1575 -91 
Q 1294 -91 989 -36 
Q 684 19 347 128 
L 347 722 
Q 666 556 975 473 
Q 1284 391 1588 391 
Q 1994 391 2212 530 
Q 2431 669 2431 922 
Q 2431 1156 2273 1281 
Q 2116 1406 1581 1522 
L 1381 1569 
Q 847 1681 609 1914 
Q 372 2147 372 2553 
Q 372 3047 722 3315 
Q 1072 3584 1716 3584 
Q 2034 3584 2315 3537 
Q 2597 3491 2834 3397 
z
" transform="scale(0.015625)"/>
       <path id="DejaVuSans-69" d="M 603 3500 
L 1178 3500 
L 1178 0 
L 603 0 
L 603 3500 
z
M 603 4863 
L 1178 4863 
L 1178 4134 
L 603 4134 
L 603 4863 
z
" transform="scale(0.015625)"/>
       <path id="DejaVuSans-64" d="M 2906 2969 
L 2906 4863 
L 3481 4863 
L 3481 0 
L 2906 0 
L 2906 525 
Q 2725 213 2448 61 
Q 2172 -91 1784 -91 
Q 1150 -91 751 415 
Q 353 922 353 1747 
Q 353 2572 751 3078 
Q 1150 3584 1784 3584 
Q 2172 3584 2448 3432 
Q 2725 3281 2906 2969 
z
M 947 1747 
Q 947 1113 1208 752 
Q 1469 391 1925 391 
Q 2381 391 2643 752 
Q 2906 1113 2906 1747 
Q 2906 2381 2643 2742 
Q 2381 3103 1925 3103 
Q 1469 3103 1208 2742 
Q 947 2381 947 1747 
z
" transform="scale(0.015625)"/>
       <path id="DejaVuSans-75" d="M 544 1381 
L 544 3500 
L 1119 3500 
L 1119 1403 
Q 1119 906 1312 657 
Q 1506 409 1894 409 
Q 2359 409 2629 706 
Q 2900 1003 2900 1516 
L 2900 3500 
L 3475 3500 
L 3475 0 
L 2900 0 
L 2900 538 
Q 2691 219 2414 64 
Q 2138 -91 1772 -91 
Q 1169 -91 856 284 
Q 544 659 544 1381 
z
M 1991 3584 
L 1991 3584 
z
" transform="scale(0.015625)"/>
       <path id="DejaVuSans-20" transform="scale(0.015625)"/>
       <path id="DejaVuSans-63" d="M 3122 3366 
L 3122 2828 
Q 2878 2963 2633 3030 
Q 2388 3097 2138 3097 
Q 1578 3097 1268 2742 
Q 959 2388 959 1747 
Q 959 1106 1268 751 
Q 1578 397 2138 397 
Q 2388 397 2633 464 
Q 2878 531 3122 666 
L 3122 134 
Q 2881 22 2623 -34 
Q 2366 -91 2075 -91 
Q 1284 -91 818 406 
Q 353 903 353 1747 
Q 353 2603 823 3093 
Q 1294 3584 2113 3584 
Q 2378 3584 2631 3529 
Q 2884 3475 3122 3366 
z
" transform="scale(0.015625)"/>
       <path id="DejaVuSans-6f" d="M 1959 3097 
Q 1497 3097 1228 2736 
Q 959 2375 959 1747 
Q 959 1119 1226 758 
Q 1494 397 1959 397 
Q 2419 397 2687 759 
Q 2956 1122 2956 1747 
Q 2956 2369 2687 2733 
Q 2419 3097 1959 3097 
z
M 1959 3584 
Q 2709 3584 3137 3096 
Q 3566 2609 3566 1747 
Q 3566 888 3137 398 
Q 2709 -91 1959 -91 
Q 1206 -91 779 398 
Q 353 888 353 1747 
Q 353 2609 779 3096 
Q 1206 3584 1959 3584 
z
" transform="scale(0.015625)"/>
       <path id="DejaVuSans-76" d="M 191 3500 
L 800 3500 
L 1894 563 
L 2988 3500 
L 3597 3500 
L 2284 0 
L 1503 0 
L 191 3500 
z
" transform="scale(0.015625)"/>
       <path id="DejaVuSans-72" d="M 2631 2963 
Q 2534 3019 2420 3045 
Q 2306 3072 2169 3072 
Q 1681 3072 1420 2755 
Q 1159 2438 1159 1844 
L 1159 0 
L 581 0 
L 581 3500 
L 1159 3500 
L 1159 2956 
Q 1341 3275 1631 3429 
Q 1922 3584 2338 3584 
Q 2397 3584 2469 3576 
Q 2541 3569 2628 3553 
L 2631 2963 
z
" transform="scale(0.015625)"/>
       <path id="DejaVuSans-61" d="M 2194 1759 
Q 1497 1759 1228 1600 
Q 959 1441 959 1056 
Q 959 750 1161 570 
Q 1363 391 1709 391 
Q 2188 391 2477 730 
Q 2766 1069 2766 1631 
L 2766 1759 
L 2194 1759 
z
M 3341 1997 
L 3341 0 
L 2766 0 
L 2766 531 
Q 2569 213 2275 61 
Q 1981 -91 1556 -91 
Q 1019 -91 701 211 
Q 384 513 384 1019 
Q 384 1609 779 1909 
Q 1175 2209 1959 2209 
L 2766 2209 
L 2766 2266 
Q 2766 2663 2505 2880 
Q 2244 3097 1772 3097 
Q 1472 3097 1187 3025 
Q 903 2953 641 2809 
L 641 3341 
Q 956 3463 1253 3523 
Q 1550 3584 1831 3584 
Q 2591 3584 2966 3190 
Q 3341 2797 3341 1997 
z
" transform="scale(0.015625)"/>
       <path id="DejaVuSans-67" d="M 2906 1791 
Q 2906 2416 2648 2759 
Q 2391 3103 1925 3103 
Q 1463 3103 1205 2759 
Q 947 2416 947 1791 
Q 947 1169 1205 825 
Q 1463 481 1925 481 
Q 2391 481 2648 825 
Q 2906 1169 2906 1791 
z
M 3481 434 
Q 3481 -459 3084 -895 
Q 2688 -1331 1869 -1331 
Q 1566 -1331 1297 -1286 
Q 1028 -1241 775 -1147 
L 775 -588 
Q 1028 -725 1275 -790 
Q 1522 -856 1778 -856 
Q 2344 -856 2625 -561 
Q 2906 -266 2906 331 
L 2906 616 
Q 2728 306 2450 153 
Q 2172 0 1784 0 
Q 1141 0 747 490 
Q 353 981 353 1791 
Q 353 2603 747 3093 
Q 1141 3584 1784 3584 
Q 2172 3584 2450 3431 
Q 2728 3278 2906 2969 
L 2906 3500 
L 3481 3500 
L 3481 434 
z
" transform="scale(0.015625)"/>
      </defs>
      <use xlink:href="#DejaVuSans-52"/>
      <use xlink:href="#DejaVuSans-65" x="64.982422"/>
      <use xlink:href="#DejaVuSans-73" x="126.505859"/>
      <use xlink:href="#DejaVuSans-69" x="178.605469"/>
      <use xlink:href="#DejaVuSans-64" x="206.388672"/>
      <use xlink:href="#DejaVuSans-75" x="269.865234"/>
      <use xlink:href="#DejaVuSans-65" x="333.244141"/>
      <use xlink:href="#DejaVuSans-20" x="394.767578"/>
      <use xlink:href="#DejaVuSans-63" x="426.554688"/>
      <use xlink:href="#DejaVuSans-6f" x="481.535156"/>
      <use xlink:href="#DejaVuSans-76" x="542.716797"/>
      <use xlink:href="#DejaVuSans-65" x="601.896484"/>
      <use xlink:href="#DejaVuSans-72" x="663.419922"/>
      <use xlink:href="#DejaVuSans-61" x="704.533203"/>
      <use xlink:href="#DejaVuSans-67" x="765.8125"/>
      <use xlink:href="#DejaVuSans-65" x="829.289062"/>
     </g>
    </g>
   </g>
   <g id="matplotlib.axis_2">
    <g id="ytick_1">
     <g id="line2d_6">
      <defs>
       <path id="mb4b91565cb" d="M 0 0 
L -3.5 0 
" style="stroke: #000000; stroke-width: 0.8"/>
      </defs>
      <g>
       <use xlink:href="#mb4b91565cb" x="27" y="65.7" style="stroke: #000000; stroke-width: 0.8"/>
      </g>
     </g>
     <g id="text_7">
      <!-- Riboviria CF -->
      <g transform="translate(-39.820312 69.499219) scale(0.1 -0.1)">
       <defs>
        <path id="DejaVuSans-Oblique-52" d="M 1613 4147 
L 1294 2491 
L 2106 2491 
Q 2584 2491 2879 2755 
Q 3175 3019 3175 3444 
Q 3175 3784 2976 3965 
Q 2778 4147 2406 4147 
L 1613 4147 
z
M 2772 2241 
Q 2972 2194 3105 2009 
Q 3238 1825 3413 1275 
L 3809 0 
L 3144 0 
L 2778 1197 
Q 2638 1659 2453 1815 
Q 2269 1972 1888 1972 
L 1191 1972 
L 806 0 
L 172 0 
L 1081 4666 
L 2503 4666 
Q 3150 4666 3495 4373 
Q 3841 4081 3841 3531 
Q 3841 3044 3547 2687 
Q 3253 2331 2772 2241 
z
" transform="scale(0.015625)"/>
        <path id="DejaVuSans-Oblique-69" d="M 1172 4863 
L 1747 4863 
L 1606 4134 
L 1031 4134 
L 1172 4863 
z
M 909 3500 
L 1484 3500 
L 800 0 
L 225 0 
L 909 3500 
z
" transform="scale(0.015625)"/>
        <path id="DejaVuSans-Oblique-62" d="M 3169 2138 
Q 3169 2591 2961 2847 
Q 2753 3103 2388 3103 
Q 2122 3103 1889 2973 
Q 1656 2844 1484 2597 
Q 1303 2338 1198 1995 
Q 1094 1653 1094 1313 
Q 1094 881 1298 636 
Q 1503 391 1863 391 
Q 2134 391 2365 517 
Q 2597 644 2772 891 
Q 2950 1147 3059 1487 
Q 3169 1828 3169 2138 
z
M 1381 2969 
Q 1594 3256 1914 3420 
Q 2234 3584 2584 3584 
Q 3122 3584 3439 3221 
Q 3756 2859 3756 2241 
Q 3756 1734 3570 1259 
Q 3384 784 3041 416 
Q 2816 172 2522 40 
Q 2228 -91 1906 -91 
Q 1566 -91 1316 65 
Q 1066 222 909 531 
L 806 0 
L 231 0 
L 1178 4863 
L 1753 4863 
L 1381 2969 
z
" transform="scale(0.015625)"/>
        <path id="DejaVuSans-Oblique-6f" d="M 1625 -91 
Q 1009 -91 651 289 
Q 294 669 294 1325 
Q 294 1706 417 2101 
Q 541 2497 738 2766 
Q 1047 3184 1428 3384 
Q 1809 3584 2291 3584 
Q 2888 3584 3255 3212 
Q 3622 2841 3622 2241 
Q 3622 1825 3500 1412 
Q 3378 1000 3181 728 
Q 2875 309 2494 109 
Q 2113 -91 1625 -91 
z
M 891 1344 
Q 891 869 1089 633 
Q 1288 397 1691 397 
Q 2269 397 2648 901 
Q 3028 1406 3028 2181 
Q 3028 2634 2825 2865 
Q 2622 3097 2228 3097 
Q 1903 3097 1650 2945 
Q 1397 2794 1197 2484 
Q 1050 2253 970 1956 
Q 891 1659 891 1344 
z
" transform="scale(0.015625)"/>
        <path id="DejaVuSans-Oblique-76" d="M 459 3500 
L 1069 3500 
L 1581 525 
L 3256 3500 
L 3866 3500 
L 1875 0 
L 1100 0 
L 459 3500 
z
" transform="scale(0.015625)"/>
        <path id="DejaVuSans-Oblique-72" d="M 2853 2969 
Q 2766 3016 2653 3041 
Q 2541 3066 2413 3066 
Q 1953 3066 1609 2717 
Q 1266 2369 1153 1784 
L 800 0 
L 225 0 
L 909 3500 
L 1484 3500 
L 1375 2956 
Q 1603 3259 1920 3421 
Q 2238 3584 2597 3584 
Q 2691 3584 2781 3573 
Q 2872 3563 2963 3538 
L 2853 2969 
z
" transform="scale(0.015625)"/>
        <path id="DejaVuSans-Oblique-61" d="M 3438 1997 
L 3047 0 
L 2472 0 
L 2578 531 
Q 2325 219 2001 64 
Q 1678 -91 1281 -91 
Q 834 -91 548 182 
Q 263 456 263 884 
Q 263 1497 752 1853 
Q 1241 2209 2100 2209 
L 2900 2209 
L 2931 2363 
Q 2938 2388 2941 2417 
Q 2944 2447 2944 2509 
Q 2944 2788 2717 2942 
Q 2491 3097 2081 3097 
Q 1800 3097 1504 3025 
Q 1209 2953 897 2809 
L 997 3341 
Q 1322 3463 1633 3523 
Q 1944 3584 2234 3584 
Q 2853 3584 3176 3315 
Q 3500 3047 3500 2534 
Q 3500 2431 3484 2292 
Q 3469 2153 3438 1997 
z
M 2816 1759 
L 2241 1759 
Q 1534 1759 1195 1570 
Q 856 1381 856 984 
Q 856 709 1029 553 
Q 1203 397 1509 397 
Q 1978 397 2328 733 
Q 2678 1069 2791 1631 
L 2816 1759 
z
" transform="scale(0.015625)"/>
        <path id="DejaVuSans-Oblique-20" transform="scale(0.015625)"/>
        <path id="DejaVuSans-Oblique-43" d="M 4447 4306 
L 4319 3641 
Q 4019 3944 3683 4091 
Q 3347 4238 2956 4238 
Q 2422 4238 2017 3981 
Q 1613 3725 1319 3200 
Q 1131 2863 1032 2486 
Q 934 2109 934 1728 
Q 934 1091 1264 756 
Q 1594 422 2222 422 
Q 2656 422 3056 561 
Q 3456 700 3834 978 
L 3688 231 
Q 3316 72 2936 -9 
Q 2556 -91 2175 -91 
Q 1278 -91 773 396 
Q 269 884 269 1753 
Q 269 2309 461 2846 
Q 653 3384 1013 3828 
Q 1394 4300 1883 4525 
Q 2372 4750 3022 4750 
Q 3422 4750 3780 4639 
Q 4138 4528 4447 4306 
z
" transform="scale(0.015625)"/>
        <path id="DejaVuSans-Oblique-46" d="M 1081 4666 
L 3756 4666 
L 3653 4134 
L 1606 4134 
L 1338 2759 
L 3188 2759 
L 3084 2228 
L 1234 2228 
L 800 0 
L 172 0 
L 1081 4666 
z
" transform="scale(0.015625)"/>
       </defs>
       <use xlink:href="#DejaVuSans-Oblique-52"/>
       <use xlink:href="#DejaVuSans-Oblique-69" x="69.482422"/>
       <use xlink:href="#DejaVuSans-Oblique-62" x="97.265625"/>
       <use xlink:href="#DejaVuSans-Oblique-6f" x="160.742188"/>
       <use xlink:href="#DejaVuSans-Oblique-76" x="221.923828"/>
       <use xlink:href="#DejaVuSans-Oblique-69" x="281.103516"/>
       <use xlink:href="#DejaVuSans-Oblique-72" x="308.886719"/>
       <use xlink:href="#DejaVuSans-Oblique-69" x="350"/>
       <use xlink:href="#DejaVuSans-Oblique-61" x="377.783203"/>
       <use xlink:href="#DejaVuSans-Oblique-20" x="439.0625"/>
       <use xlink:href="#DejaVuSans-Oblique-43" x="470.849609"/>
       <use xlink:href="#DejaVuSans-Oblique-46" x="540.673828"/>
      </g>
     </g>
    </g>
    <g id="ytick_2">
     <g id="line2d_7">
      <g>
       <use xlink:href="#mb4b91565cb" x="27" y="93.42" style="stroke: #000000; stroke-width: 0.8"/>
      </g>
     </g>
     <g id="text_8">
      <!-- Riboviria EF -->
      <g transform="translate(-39.15625 97.219219) scale(0.1 -0.1)">
       <defs>
        <path id="DejaVuSans-Oblique-45" d="M 1081 4666 
L 4031 4666 
L 3928 4134 
L 1606 4134 
L 1338 2753 
L 3566 2753 
L 3463 2222 
L 1234 2222 
L 909 531 
L 3284 531 
L 3181 0 
L 172 0 
L 1081 4666 
z
" transform="scale(0.015625)"/>
       </defs>
       <use xlink:href="#DejaVuSans-Oblique-52"/>
       <use xlink:href="#DejaVuSans-Oblique-69" x="69.482422"/>
       <use xlink:href="#DejaVuSans-Oblique-62" x="97.265625"/>
       <use xlink:href="#DejaVuSans-Oblique-6f" x="160.742188"/>
       <use xlink:href="#DejaVuSans-Oblique-76" x="221.923828"/>
       <use xlink:href="#DejaVuSans-Oblique-69" x="281.103516"/>
       <use xlink:href="#DejaVuSans-Oblique-72" x="308.886719"/>
       <use xlink:href="#DejaVuSans-Oblique-69" x="350"/>
       <use xlink:href="#DejaVuSans-Oblique-61" x="377.783203"/>
       <use xlink:href="#DejaVuSans-Oblique-20" x="439.0625"/>
       <use xlink:href="#DejaVuSans-Oblique-45" x="470.849609"/>
       <use xlink:href="#DejaVuSans-Oblique-46" x="534.033203"/>
      </g>
     </g>
    </g>
    <g id="ytick_3">
     <g id="line2d_8">
      <g>
       <use xlink:href="#mb4b91565cb" x="27" y="121.14" style="stroke: #000000; stroke-width: 0.8"/>
      </g>
     </g>
     <g id="text_9">
      <!-- Monodnaviria CF -->
      <g transform="translate(-63.64375 124.939219) scale(0.1 -0.1)">
       <defs>
        <path id="DejaVuSans-Oblique-4d" d="M 1081 4666 
L 2028 4666 
L 2572 1522 
L 4378 4666 
L 5350 4666 
L 4441 0 
L 3828 0 
L 4622 4091 
L 2791 897 
L 2175 897 
L 1581 4103 
L 788 0 
L 172 0 
L 1081 4666 
z
" transform="scale(0.015625)"/>
        <path id="DejaVuSans-Oblique-6e" d="M 3566 2113 
L 3156 0 
L 2578 0 
L 2988 2091 
Q 3016 2238 3031 2350 
Q 3047 2463 3047 2528 
Q 3047 2791 2881 2937 
Q 2716 3084 2419 3084 
Q 1956 3084 1622 2776 
Q 1288 2469 1184 1941 
L 800 0 
L 225 0 
L 903 3500 
L 1478 3500 
L 1363 2950 
Q 1603 3253 1940 3418 
Q 2278 3584 2650 3584 
Q 3113 3584 3367 3334 
Q 3622 3084 3622 2631 
Q 3622 2519 3608 2391 
Q 3594 2263 3566 2113 
z
" transform="scale(0.015625)"/>
        <path id="DejaVuSans-Oblique-64" d="M 2675 525 
Q 2444 222 2128 65 
Q 1813 -91 1428 -91 
Q 903 -91 598 267 
Q 294 625 294 1247 
Q 294 1766 478 2236 
Q 663 2706 1013 3078 
Q 1244 3325 1534 3454 
Q 1825 3584 2144 3584 
Q 2481 3584 2739 3421 
Q 2997 3259 3138 2956 
L 3513 4863 
L 4091 4863 
L 3144 0 
L 2566 0 
L 2675 525 
z
M 891 1350 
Q 891 897 1095 644 
Q 1300 391 1663 391 
Q 1931 391 2161 520 
Q 2391 650 2566 903 
Q 2750 1166 2856 1509 
Q 2963 1853 2963 2188 
Q 2963 2622 2758 2865 
Q 2553 3109 2194 3109 
Q 1922 3109 1687 2981 
Q 1453 2853 1288 2613 
Q 1106 2353 998 2009 
Q 891 1666 891 1350 
z
" transform="scale(0.015625)"/>
       </defs>
       <use xlink:href="#DejaVuSans-Oblique-4d"/>
       <use xlink:href="#DejaVuSans-Oblique-6f" x="86.279297"/>
       <use xlink:href="#DejaVuSans-Oblique-6e" x="147.460938"/>
       <use xlink:href="#DejaVuSans-Oblique-6f" x="210.839844"/>
       <use xlink:href="#DejaVuSans-Oblique-64" x="272.021484"/>
       <use xlink:href="#DejaVuSans-Oblique-6e" x="335.498047"/>
       <use xlink:href="#DejaVuSans-Oblique-61" x="398.876953"/>
       <use xlink:href="#DejaVuSans-Oblique-76" x="460.15625"/>
       <use xlink:href="#DejaVuSans-Oblique-69" x="519.335938"/>
       <use xlink:href="#DejaVuSans-Oblique-72" x="547.119141"/>
       <use xlink:href="#DejaVuSans-Oblique-69" x="588.232422"/>
       <use xlink:href="#DejaVuSans-Oblique-61" x="616.015625"/>
       <use xlink:href="#DejaVuSans-Oblique-20" x="677.294922"/>
       <use xlink:href="#DejaVuSans-Oblique-43" x="709.082031"/>
       <use xlink:href="#DejaVuSans-Oblique-46" x="778.90625"/>
      </g>
     </g>
    </g>
    <g id="ytick_4">
     <g id="line2d_9">
      <g>
       <use xlink:href="#mb4b91565cb" x="27" y="148.86" style="stroke: #000000; stroke-width: 0.8"/>
      </g>
     </g>
     <g id="text_10">
      <!-- Monodnaviria EF -->
      <g transform="translate(-62.979688 152.659219) scale(0.1 -0.1)">
       <use xlink:href="#DejaVuSans-Oblique-4d"/>
       <use xlink:href="#DejaVuSans-Oblique-6f" x="86.279297"/>
       <use xlink:href="#DejaVuSans-Oblique-6e" x="147.460938"/>
       <use xlink:href="#DejaVuSans-Oblique-6f" x="210.839844"/>
       <use xlink:href="#DejaVuSans-Oblique-64" x="272.021484"/>
       <use xlink:href="#DejaVuSans-Oblique-6e" x="335.498047"/>
       <use xlink:href="#DejaVuSans-Oblique-61" x="398.876953"/>
       <use xlink:href="#DejaVuSans-Oblique-76" x="460.15625"/>
       <use xlink:href="#DejaVuSans-Oblique-69" x="519.335938"/>
       <use xlink:href="#DejaVuSans-Oblique-72" x="547.119141"/>
       <use xlink:href="#DejaVuSans-Oblique-69" x="588.232422"/>
       <use xlink:href="#DejaVuSans-Oblique-61" x="616.015625"/>
       <use xlink:href="#DejaVuSans-Oblique-20" x="677.294922"/>
       <use xlink:href="#DejaVuSans-Oblique-45" x="709.082031"/>
       <use xlink:href="#DejaVuSans-Oblique-46" x="772.265625"/>
      </g>
     </g>
    </g>
    <g id="ytick_5">
     <g id="line2d_10">
      <g>
       <use xlink:href="#mb4b91565cb" x="27" y="176.58" style="stroke: #000000; stroke-width: 0.8"/>
      </g>
     </g>
     <g id="text_11">
      <!-- Unclassified CF -->
      <g transform="translate(-55.970313 180.379219) scale(0.1 -0.1)">
       <defs>
        <path id="DejaVuSans-Oblique-55" d="M 991 4666 
L 1625 4666 
L 1075 1831 
Q 1041 1641 1027 1517 
Q 1013 1394 1013 1300 
Q 1013 869 1253 645 
Q 1494 422 1959 422 
Q 2563 422 2898 753 
Q 3234 1084 3378 1831 
L 3928 4666 
L 4563 4666 
L 4000 1753 
Q 3816 809 3300 359 
Q 2784 -91 1888 -91 
Q 1188 -91 780 261 
Q 372 613 372 1216 
Q 372 1325 387 1461 
Q 403 1597 434 1753 
L 991 4666 
z
" transform="scale(0.015625)"/>
        <path id="DejaVuSans-Oblique-63" d="M 3431 3366 
L 3316 2797 
Q 3109 2947 2876 3022 
Q 2644 3097 2394 3097 
Q 2119 3097 1870 3000 
Q 1622 2903 1453 2725 
Q 1184 2453 1037 2087 
Q 891 1722 891 1331 
Q 891 859 1127 628 
Q 1363 397 1844 397 
Q 2081 397 2348 469 
Q 2616 541 2906 684 
L 2797 116 
Q 2547 13 2283 -39 
Q 2019 -91 1741 -91 
Q 1044 -91 669 257 
Q 294 606 294 1253 
Q 294 1797 489 2255 
Q 684 2713 1069 3078 
Q 1331 3328 1684 3456 
Q 2038 3584 2456 3584 
Q 2700 3584 2940 3529 
Q 3181 3475 3431 3366 
z
" transform="scale(0.015625)"/>
        <path id="DejaVuSans-Oblique-6c" d="M 1172 4863 
L 1747 4863 
L 800 0 
L 225 0 
L 1172 4863 
z
" transform="scale(0.015625)"/>
        <path id="DejaVuSans-Oblique-73" d="M 3200 3397 
L 3091 2853 
Q 2863 2978 2609 3040 
Q 2356 3103 2088 3103 
Q 1634 3103 1373 2948 
Q 1113 2794 1113 2528 
Q 1113 2219 1719 2053 
Q 1766 2041 1788 2034 
L 1972 1978 
Q 2547 1819 2739 1644 
Q 2931 1469 2931 1166 
Q 2931 609 2489 259 
Q 2047 -91 1331 -91 
Q 1053 -91 747 -37 
Q 441 16 72 128 
L 184 722 
Q 500 559 806 475 
Q 1113 391 1394 391 
Q 1816 391 2080 572 
Q 2344 753 2344 1031 
Q 2344 1331 1650 1516 
L 1591 1531 
L 1394 1581 
Q 956 1697 753 1886 
Q 550 2075 550 2369 
Q 550 2928 970 3256 
Q 1391 3584 2113 3584 
Q 2397 3584 2667 3537 
Q 2938 3491 3200 3397 
z
" transform="scale(0.015625)"/>
        <path id="DejaVuSans-Oblique-66" d="M 3059 4863 
L 2969 4384 
L 2419 4384 
Q 2106 4384 1964 4261 
Q 1822 4138 1753 3809 
L 1691 3500 
L 2638 3500 
L 2553 3053 
L 1606 3053 
L 1013 0 
L 434 0 
L 1031 3053 
L 481 3053 
L 563 3500 
L 1113 3500 
L 1159 3744 
Q 1278 4363 1576 4613 
Q 1875 4863 2516 4863 
L 3059 4863 
z
" transform="scale(0.015625)"/>
        <path id="DejaVuSans-Oblique-65" d="M 3078 2063 
Q 3088 2113 3092 2166 
Q 3097 2219 3097 2272 
Q 3097 2653 2873 2875 
Q 2650 3097 2266 3097 
Q 1838 3097 1509 2826 
Q 1181 2556 1013 2059 
L 3078 2063 
z
M 3578 1613 
L 903 1613 
Q 884 1494 878 1425 
Q 872 1356 872 1306 
Q 872 872 1139 634 
Q 1406 397 1894 397 
Q 2269 397 2603 481 
Q 2938 566 3225 728 
L 3116 159 
Q 2806 34 2476 -28 
Q 2147 -91 1806 -91 
Q 1078 -91 686 257 
Q 294 606 294 1247 
Q 294 1794 489 2264 
Q 684 2734 1063 3103 
Q 1306 3334 1642 3459 
Q 1978 3584 2356 3584 
Q 2950 3584 3301 3228 
Q 3653 2872 3653 2272 
Q 3653 2128 3634 1964 
Q 3616 1800 3578 1613 
z
" transform="scale(0.015625)"/>
       </defs>
       <use xlink:href="#DejaVuSans-Oblique-55"/>
       <use xlink:href="#DejaVuSans-Oblique-6e" x="73.193359"/>
       <use xlink:href="#DejaVuSans-Oblique-63" x="136.572266"/>
       <use xlink:href="#DejaVuSans-Oblique-6c" x="191.552734"/>
       <use xlink:href="#DejaVuSans-Oblique-61" x="219.335938"/>
       <use xlink:href="#DejaVuSans-Oblique-73" x="280.615234"/>
       <use xlink:href="#DejaVuSans-Oblique-73" x="332.714844"/>
       <use xlink:href="#DejaVuSans-Oblique-69" x="384.814453"/>
       <use xlink:href="#DejaVuSans-Oblique-66" x="412.597656"/>
       <use xlink:href="#DejaVuSans-Oblique-69" x="447.802734"/>
       <use xlink:href="#DejaVuSans-Oblique-65" x="475.585938"/>
       <use xlink:href="#DejaVuSans-Oblique-64" x="537.109375"/>
       <use xlink:href="#DejaVuSans-Oblique-20" x="600.585938"/>
       <use xlink:href="#DejaVuSans-Oblique-43" x="632.373047"/>
       <use xlink:href="#DejaVuSans-Oblique-46" x="702.197266"/>
      </g>
     </g>
    </g>
    <g id="ytick_6">
     <g id="line2d_11">
      <g>
       <use xlink:href="#mb4b91565cb" x="27" y="204.3" style="stroke: #000000; stroke-width: 0.8"/>
      </g>
     </g>
     <g id="text_12">
      <!-- Unclassified EF -->
      <g transform="translate(-55.30625 208.099219) scale(0.1 -0.1)">
       <use xlink:href="#DejaVuSans-Oblique-55"/>
       <use xlink:href="#DejaVuSans-Oblique-6e" x="73.193359"/>
       <use xlink:href="#DejaVuSans-Oblique-63" x="136.572266"/>
       <use xlink:href="#DejaVuSans-Oblique-6c" x="191.552734"/>
       <use xlink:href="#DejaVuSans-Oblique-61" x="219.335938"/>
       <use xlink:href="#DejaVuSans-Oblique-73" x="280.615234"/>
       <use xlink:href="#DejaVuSans-Oblique-73" x="332.714844"/>
       <use xlink:href="#DejaVuSans-Oblique-69" x="384.814453"/>
       <use xlink:href="#DejaVuSans-Oblique-66" x="412.597656"/>
       <use xlink:href="#DejaVuSans-Oblique-69" x="447.802734"/>
       <use xlink:href="#DejaVuSans-Oblique-65" x="475.585938"/>
       <use xlink:href="#DejaVuSans-Oblique-64" x="537.109375"/>
       <use xlink:href="#DejaVuSans-Oblique-20" x="600.585938"/>
       <use xlink:href="#DejaVuSans-Oblique-45" x="632.373047"/>
       <use xlink:href="#DejaVuSans-Oblique-46" x="695.556641"/>
      </g>
     </g>
    </g>
    <g id="ytick_7">
     <g id="line2d_12">
      <g>
       <use xlink:href="#mb4b91565cb" x="27" y="232.02" style="stroke: #000000; stroke-width: 0.8"/>
      </g>
     </g>
     <g id="text_13">
      <!-- Varidnaviria CF -->
      <g transform="translate(-55.660938 235.819219) scale(0.1 -0.1)">
       <defs>
        <path id="DejaVuSans-Oblique-56" d="M 1319 0 
L 500 4666 
L 1119 4666 
L 1797 653 
L 4063 4666 
L 4750 4666 
L 2053 0 
L 1319 0 
z
" transform="scale(0.015625)"/>
       </defs>
       <use xlink:href="#DejaVuSans-Oblique-56"/>
       <use xlink:href="#DejaVuSans-Oblique-61" x="62.033203"/>
       <use xlink:href="#DejaVuSans-Oblique-72" x="123.3125"/>
       <use xlink:href="#DejaVuSans-Oblique-69" x="164.425781"/>
       <use xlink:href="#DejaVuSans-Oblique-64" x="192.208984"/>
       <use xlink:href="#DejaVuSans-Oblique-6e" x="255.685547"/>
       <use xlink:href="#DejaVuSans-Oblique-61" x="319.064453"/>
       <use xlink:href="#DejaVuSans-Oblique-76" x="380.34375"/>
       <use xlink:href="#DejaVuSans-Oblique-69" x="439.523438"/>
       <use xlink:href="#DejaVuSans-Oblique-72" x="467.306641"/>
       <use xlink:href="#DejaVuSans-Oblique-69" x="508.419922"/>
       <use xlink:href="#DejaVuSans-Oblique-61" x="536.203125"/>
       <use xlink:href="#DejaVuSans-Oblique-20" x="597.482422"/>
       <use xlink:href="#DejaVuSans-Oblique-43" x="629.269531"/>
       <use xlink:href="#DejaVuSans-Oblique-46" x="699.09375"/>
      </g>
     </g>
    </g>
    <g id="ytick_8">
     <g id="line2d_13">
      <g>
       <use xlink:href="#mb4b91565cb" x="27" y="259.74" style="stroke: #000000; stroke-width: 0.8"/>
      </g>
     </g>
     <g id="text_14">
      <!-- Varidnaviria EF -->
      <g transform="translate(-54.996875 263.539219) scale(0.1 -0.1)">
       <use xlink:href="#DejaVuSans-Oblique-56"/>
       <use xlink:href="#DejaVuSans-Oblique-61" x="62.033203"/>
       <use xlink:href="#DejaVuSans-Oblique-72" x="123.3125"/>
       <use xlink:href="#DejaVuSans-Oblique-69" x="164.425781"/>
       <use xlink:href="#DejaVuSans-Oblique-64" x="192.208984"/>
       <use xlink:href="#DejaVuSans-Oblique-6e" x="255.685547"/>
       <use xlink:href="#DejaVuSans-Oblique-61" x="319.064453"/>
       <use xlink:href="#DejaVuSans-Oblique-76" x="380.34375"/>
       <use xlink:href="#DejaVuSans-Oblique-69" x="439.523438"/>
       <use xlink:href="#DejaVuSans-Oblique-72" x="467.306641"/>
       <use xlink:href="#DejaVuSans-Oblique-69" x="508.419922"/>
       <use xlink:href="#DejaVuSans-Oblique-61" x="536.203125"/>
       <use xlink:href="#DejaVuSans-Oblique-20" x="597.482422"/>
       <use xlink:href="#DejaVuSans-Oblique-45" x="629.269531"/>
       <use xlink:href="#DejaVuSans-Oblique-46" x="692.453125"/>
      </g>
     </g>
    </g>
    <g id="ytick_9">
     <g id="line2d_14">
      <g>
       <use xlink:href="#mb4b91565cb" x="27" y="287.46" style="stroke: #000000; stroke-width: 0.8"/>
      </g>
     </g>
     <g id="text_15">
      <!-- Duplodnaviria CF -->
      <g transform="translate(-65.723438 291.259219) scale(0.1 -0.1)">
       <defs>
        <path id="DejaVuSans-Oblique-44" d="M 1081 4666 
L 2438 4666 
Q 3519 4666 4070 4208 
Q 4622 3750 4622 2847 
Q 4622 2250 4412 1698 
Q 4203 1147 3834 769 
Q 3463 381 2891 190 
Q 2319 0 1538 0 
L 172 0 
L 1081 4666 
z
M 1613 4147 
L 909 519 
L 1734 519 
Q 2794 519 3375 1128 
Q 3956 1738 3956 2847 
Q 3956 3519 3581 3833 
Q 3206 4147 2406 4147 
L 1613 4147 
z
" transform="scale(0.015625)"/>
        <path id="DejaVuSans-Oblique-75" d="M 428 1388 
L 838 3500 
L 1416 3500 
L 1006 1409 
Q 975 1256 961 1147 
Q 947 1038 947 966 
Q 947 700 1109 554 
Q 1272 409 1569 409 
Q 2031 409 2368 721 
Q 2706 1034 2809 1563 
L 3194 3500 
L 3769 3500 
L 3091 0 
L 2516 0 
L 2631 550 
Q 2388 244 2052 76 
Q 1716 -91 1338 -91 
Q 878 -91 622 161 
Q 366 413 366 863 
Q 366 956 381 1097 
Q 397 1238 428 1388 
z
" transform="scale(0.015625)"/>
        <path id="DejaVuSans-Oblique-70" d="M 3175 2156 
Q 3175 2616 2975 2859 
Q 2775 3103 2400 3103 
Q 2144 3103 1911 2972 
Q 1678 2841 1497 2591 
Q 1319 2344 1212 1994 
Q 1106 1644 1106 1300 
Q 1106 863 1306 627 
Q 1506 391 1875 391 
Q 2147 391 2380 519 
Q 2613 647 2778 891 
Q 2956 1147 3065 1494 
Q 3175 1841 3175 2156 
z
M 1394 2969 
Q 1625 3272 1939 3428 
Q 2253 3584 2638 3584 
Q 3175 3584 3472 3232 
Q 3769 2881 3769 2247 
Q 3769 1728 3584 1258 
Q 3400 788 3053 416 
Q 2822 169 2531 39 
Q 2241 -91 1919 -91 
Q 1547 -91 1294 64 
Q 1041 219 916 525 
L 556 -1331 
L -19 -1331 
L 922 3500 
L 1497 3500 
L 1394 2969 
z
" transform="scale(0.015625)"/>
       </defs>
       <use xlink:href="#DejaVuSans-Oblique-44"/>
       <use xlink:href="#DejaVuSans-Oblique-75" x="77.001953"/>
       <use xlink:href="#DejaVuSans-Oblique-70" x="140.380859"/>
       <use xlink:href="#DejaVuSans-Oblique-6c" x="203.857422"/>
       <use xlink:href="#DejaVuSans-Oblique-6f" x="231.640625"/>
       <use xlink:href="#DejaVuSans-Oblique-64" x="292.822266"/>
       <use xlink:href="#DejaVuSans-Oblique-6e" x="356.298828"/>
       <use xlink:href="#DejaVuSans-Oblique-61" x="419.677734"/>
       <use xlink:href="#DejaVuSans-Oblique-76" x="480.957031"/>
       <use xlink:href="#DejaVuSans-Oblique-69" x="540.136719"/>
       <use xlink:href="#DejaVuSans-Oblique-72" x="567.919922"/>
       <use xlink:href="#DejaVuSans-Oblique-69" x="609.033203"/>
       <use xlink:href="#DejaVuSans-Oblique-61" x="636.816406"/>
       <use xlink:href="#DejaVuSans-Oblique-20" x="698.095703"/>
       <use xlink:href="#DejaVuSans-Oblique-43" x="729.882812"/>
       <use xlink:href="#DejaVuSans-Oblique-46" x="799.707031"/>
      </g>
     </g>
    </g>
    <g id="ytick_10">
     <g id="line2d_15">
      <g>
       <use xlink:href="#mb4b91565cb" x="27" y="315.18" style="stroke: #000000; stroke-width: 0.8"/>
      </g>
     </g>
     <g id="text_16">
      <!-- Duplodnaviria EF -->
      <g transform="translate(-65.059375 318.979219) scale(0.1 -0.1)">
       <use xlink:href="#DejaVuSans-Oblique-44"/>
       <use xlink:href="#DejaVuSans-Oblique-75" x="77.001953"/>
       <use xlink:href="#DejaVuSans-Oblique-70" x="140.380859"/>
       <use xlink:href="#DejaVuSans-Oblique-6c" x="203.857422"/>
       <use xlink:href="#DejaVuSans-Oblique-6f" x="231.640625"/>
       <use xlink:href="#DejaVuSans-Oblique-64" x="292.822266"/>
       <use xlink:href="#DejaVuSans-Oblique-6e" x="356.298828"/>
       <use xlink:href="#DejaVuSans-Oblique-61" x="419.677734"/>
       <use xlink:href="#DejaVuSans-Oblique-76" x="480.957031"/>
       <use xlink:href="#DejaVuSans-Oblique-69" x="540.136719"/>
       <use xlink:href="#DejaVuSans-Oblique-72" x="567.919922"/>
       <use xlink:href="#DejaVuSans-Oblique-69" x="609.033203"/>
       <use xlink:href="#DejaVuSans-Oblique-61" x="636.816406"/>
       <use xlink:href="#DejaVuSans-Oblique-20" x="698.095703"/>
       <use xlink:href="#DejaVuSans-Oblique-45" x="729.882812"/>
       <use xlink:href="#DejaVuSans-Oblique-46" x="793.066406"/>
      </g>
     </g>
    </g>
    <g id="ytick_11">
     <g id="line2d_16">
      <g>
       <use xlink:href="#mb4b91565cb" x="27" y="342.9" style="stroke: #000000; stroke-width: 0.8"/>
      </g>
     </g>
     <g id="text_17">
      <!-- Ribozyviria CF -->
      <g transform="translate(-50.9875 346.699219) scale(0.1 -0.1)">
       <defs>
        <path id="DejaVuSans-Oblique-7a" d="M 744 3500 
L 3475 3500 
L 3372 2975 
L 738 459 
L 2913 459 
L 2822 0 
L -19 0 
L 84 525 
L 2719 3041 
L 653 3041 
L 744 3500 
z
" transform="scale(0.015625)"/>
        <path id="DejaVuSans-Oblique-79" d="M 1588 -325 
Q 1188 -997 936 -1164 
Q 684 -1331 294 -1331 
L -159 -1331 
L -63 -850 
L 269 -850 
Q 509 -850 678 -719 
Q 847 -588 1056 -206 
L 1234 128 
L 459 3500 
L 1069 3500 
L 1650 819 
L 3256 3500 
L 3859 3500 
L 1588 -325 
z
" transform="scale(0.015625)"/>
       </defs>
       <use xlink:href="#DejaVuSans-Oblique-52"/>
       <use xlink:href="#DejaVuSans-Oblique-69" x="69.482422"/>
       <use xlink:href="#DejaVuSans-Oblique-62" x="97.265625"/>
       <use xlink:href="#DejaVuSans-Oblique-6f" x="160.742188"/>
       <use xlink:href="#DejaVuSans-Oblique-7a" x="221.923828"/>
       <use xlink:href="#DejaVuSans-Oblique-79" x="274.414062"/>
       <use xlink:href="#DejaVuSans-Oblique-76" x="333.59375"/>
       <use xlink:href="#DejaVuSans-Oblique-69" x="392.773438"/>
       <use xlink:href="#DejaVuSans-Oblique-72" x="420.556641"/>
       <use xlink:href="#DejaVuSans-Oblique-69" x="461.669922"/>
       <use xlink:href="#DejaVuSans-Oblique-61" x="489.453125"/>
       <use xlink:href="#DejaVuSans-Oblique-20" x="550.732422"/>
       <use xlink:href="#DejaVuSans-Oblique-43" x="582.519531"/>
       <use xlink:href="#DejaVuSans-Oblique-46" x="652.34375"/>
      </g>
     </g>
    </g>
    <g id="ytick_12">
     <g id="line2d_17">
      <g>
       <use xlink:href="#mb4b91565cb" x="27" y="370.62" style="stroke: #000000; stroke-width: 0.8"/>
      </g>
     </g>
     <g id="text_18">
      <!-- Ribozyviria EF -->
      <g transform="translate(-50.323437 374.419219) scale(0.1 -0.1)">
       <use xlink:href="#DejaVuSans-Oblique-52"/>
       <use xlink:href="#DejaVuSans-Oblique-69" x="69.482422"/>
       <use xlink:href="#DejaVuSans-Oblique-62" x="97.265625"/>
       <use xlink:href="#DejaVuSans-Oblique-6f" x="160.742188"/>
       <use xlink:href="#DejaVuSans-Oblique-7a" x="221.923828"/>
       <use xlink:href="#DejaVuSans-Oblique-79" x="274.414062"/>
       <use xlink:href="#DejaVuSans-Oblique-76" x="333.59375"/>
       <use xlink:href="#DejaVuSans-Oblique-69" x="392.773438"/>
       <use xlink:href="#DejaVuSans-Oblique-72" x="420.556641"/>
       <use xlink:href="#DejaVuSans-Oblique-69" x="461.669922"/>
       <use xlink:href="#DejaVuSans-Oblique-61" x="489.453125"/>
       <use xlink:href="#DejaVuSans-Oblique-20" x="550.732422"/>
       <use xlink:href="#DejaVuSans-Oblique-45" x="582.519531"/>
       <use xlink:href="#DejaVuSans-Oblique-46" x="645.703125"/>
      </g>
     </g>
    </g>
   </g>
   <g id="line2d_18">
    <path clip-path="url(#p4a8378ed11)" style="fill: none; stroke: #424242; stroke-width: 2.25; stroke-linecap: square"/>
   </g>
   <g id="line2d_19">
    <path clip-path="url(#p4a8378ed11)" style="fill: none; stroke: #424242; stroke-width: 2.25; stroke-linecap: square"/>
   </g>
   <g id="line2d_20">
    <path clip-path="url(#p4a8378ed11)" style="fill: none; stroke: #424242; stroke-width: 2.25; stroke-linecap: square"/>
   </g>
   <g id="line2d_21">
    <path clip-path="url(#p4a8378ed11)" style="fill: none; stroke: #424242; stroke-width: 2.25; stroke-linecap: square"/>
   </g>
   <g id="line2d_22">
    <path clip-path="url(#p4a8378ed11)" style="fill: none; stroke: #424242; stroke-width: 2.25; stroke-linecap: square"/>
   </g>
   <g id="line2d_23">
    <path clip-path="url(#p4a8378ed11)" style="fill: none; stroke: #424242; stroke-width: 2.25; stroke-linecap: square"/>
   </g>
   <g id="line2d_24">
    <path clip-path="url(#p4a8378ed11)" style="fill: none; stroke: #424242; stroke-width: 2.25; stroke-linecap: square"/>
   </g>
   <g id="line2d_25">
    <path clip-path="url(#p4a8378ed11)" style="fill: none; stroke: #424242; stroke-width: 2.25; stroke-linecap: square"/>
   </g>
   <g id="line2d_26">
    <path clip-path="url(#p4a8378ed11)" style="fill: none; stroke: #424242; stroke-width: 2.25; stroke-linecap: square"/>
   </g>
   <g id="line2d_27">
    <path clip-path="url(#p4a8378ed11)" style="fill: none; stroke: #424242; stroke-width: 2.25; stroke-linecap: square"/>
   </g>
   <g id="line2d_28">
    <path clip-path="url(#p4a8378ed11)" style="fill: none; stroke: #424242; stroke-width: 2.25; stroke-linecap: square"/>
   </g>
   <g id="line2d_29">
    <path clip-path="url(#p4a8378ed11)" style="fill: none; stroke: #424242; stroke-width: 2.25; stroke-linecap: square"/>
   </g>
   <g id="line2d_30">
    <path clip-path="url(#p4a8378ed11)" style="fill: none; stroke: #424242; stroke-width: 2.25; stroke-linecap: square"/>
   </g>
   <g id="line2d_31">
    <path clip-path="url(#p4a8378ed11)" style="fill: none; stroke: #424242; stroke-width: 2.25; stroke-linecap: square"/>
   </g>
   <g id="line2d_32">
    <path clip-path="url(#p4a8378ed11)" style="fill: none; stroke: #424242; stroke-width: 2.25; stroke-linecap: square"/>
   </g>
   <g id="line2d_33">
    <path clip-path="url(#p4a8378ed11)" style="fill: none; stroke: #424242; stroke-width: 2.25; stroke-linecap: square"/>
   </g>
   <g id="line2d_34">
    <path clip-path="url(#p4a8378ed11)" style="fill: none; stroke: #424242; stroke-width: 2.25; stroke-linecap: square"/>
   </g>
   <g id="line2d_35">
    <path clip-path="url(#p4a8378ed11)" style="fill: none; stroke: #424242; stroke-width: 2.25; stroke-linecap: square"/>
   </g>
   <g id="line2d_36">
    <path clip-path="url(#p4a8378ed11)" style="fill: none; stroke: #424242; stroke-width: 2.25; stroke-linecap: square"/>
   </g>
   <g id="line2d_37">
    <path clip-path="url(#p4a8378ed11)" style="fill: none; stroke: #424242; stroke-width: 2.25; stroke-linecap: square"/>
   </g>
   <g id="line2d_38">
    <path clip-path="url(#p4a8378ed11)" style="fill: none; stroke: #424242; stroke-width: 2.25; stroke-linecap: square"/>
   </g>
   <g id="line2d_39">
    <path clip-path="url(#p4a8378ed11)" style="fill: none; stroke: #424242; stroke-width: 2.25; stroke-linecap: square"/>
   </g>
   <g id="line2d_40">
    <path clip-path="url(#p4a8378ed11)" style="fill: none; stroke: #424242; stroke-width: 2.25; stroke-linecap: square"/>
   </g>
   <g id="line2d_41">
    <path clip-path="url(#p4a8378ed11)" style="fill: none; stroke: #424242; stroke-width: 2.25; stroke-linecap: square"/>
   </g>
   <g id="line2d_42">
    <path clip-path="url(#p4a8378ed11)" style="fill: none; stroke: #424242; stroke-width: 2.25; stroke-linecap: square"/>
   </g>
   <g id="line2d_43">
    <path clip-path="url(#p4a8378ed11)" style="fill: none; stroke: #424242; stroke-width: 2.25; stroke-linecap: square"/>
   </g>
   <g id="line2d_44">
    <path clip-path="url(#p4a8378ed11)" style="fill: none; stroke: #424242; stroke-width: 2.25; stroke-linecap: square"/>
   </g>
   <g id="line2d_45">
    <path clip-path="url(#p4a8378ed11)" style="fill: none; stroke: #424242; stroke-width: 2.25; stroke-linecap: square"/>
   </g>
   <g id="line2d_46">
    <path clip-path="url(#p4a8378ed11)" style="fill: none; stroke: #424242; stroke-width: 2.25; stroke-linecap: square"/>
   </g>
   <g id="line2d_47">
    <path clip-path="url(#p4a8378ed11)" style="fill: none; stroke: #424242; stroke-width: 2.25; stroke-linecap: square"/>
   </g>
   <g id="line2d_48">
    <path clip-path="url(#p4a8378ed11)" style="fill: none; stroke: #424242; stroke-width: 2.25; stroke-linecap: square"/>
   </g>
   <g id="line2d_49">
    <path clip-path="url(#p4a8378ed11)" style="fill: none; stroke: #424242; stroke-width: 2.25; stroke-linecap: square"/>
   </g>
   <g id="line2d_50">
    <path clip-path="url(#p4a8378ed11)" style="fill: none; stroke: #424242; stroke-width: 2.25; stroke-linecap: square"/>
   </g>
   <g id="line2d_51">
    <path clip-path="url(#p4a8378ed11)" style="fill: none; stroke: #424242; stroke-width: 2.25; stroke-linecap: square"/>
   </g>
   <g id="line2d_52">
    <path clip-path="url(#p4a8378ed11)" style="fill: none; stroke: #424242; stroke-width: 2.25; stroke-linecap: square"/>
   </g>
   <g id="line2d_53">
    <path clip-path="url(#p4a8378ed11)" style="fill: none; stroke: #424242; stroke-width: 2.25; stroke-linecap: square"/>
   </g>
   <g id="line2d_54">
    <path clip-path="url(#p4a8378ed11)" style="fill: none; stroke: #424242; stroke-width: 2.25; stroke-linecap: square"/>
   </g>
   <g id="line2d_55">
    <path clip-path="url(#p4a8378ed11)" style="fill: none; stroke: #424242; stroke-width: 2.25; stroke-linecap: square"/>
   </g>
   <g id="line2d_56">
    <path clip-path="url(#p4a8378ed11)" style="fill: none; stroke: #424242; stroke-width: 2.25; stroke-linecap: square"/>
   </g>
   <g id="line2d_57">
    <path clip-path="url(#p4a8378ed11)" style="fill: none; stroke: #424242; stroke-width: 2.25; stroke-linecap: square"/>
   </g>
   <g id="line2d_58">
    <path clip-path="url(#p4a8378ed11)" style="fill: none; stroke: #424242; stroke-width: 2.25; stroke-linecap: square"/>
   </g>
   <g id="line2d_59">
    <path clip-path="url(#p4a8378ed11)" style="fill: none; stroke: #424242; stroke-width: 2.25; stroke-linecap: square"/>
   </g>
   <g id="line2d_60">
    <path clip-path="url(#p4a8378ed11)" style="fill: none; stroke: #424242; stroke-width: 2.25; stroke-linecap: square"/>
   </g>
   <g id="line2d_61">
    <path clip-path="url(#p4a8378ed11)" style="fill: none; stroke: #424242; stroke-width: 2.25; stroke-linecap: square"/>
   </g>
   <g id="line2d_62">
    <path clip-path="url(#p4a8378ed11)" style="fill: none; stroke: #424242; stroke-width: 2.25; stroke-linecap: square"/>
   </g>
   <g id="line2d_63">
    <path clip-path="url(#p4a8378ed11)" style="fill: none; stroke: #424242; stroke-width: 2.25; stroke-linecap: square"/>
   </g>
   <g id="line2d_64">
    <path clip-path="url(#p4a8378ed11)" style="fill: none; stroke: #424242; stroke-width: 2.25; stroke-linecap: square"/>
   </g>
   <g id="line2d_65">
    <path clip-path="url(#p4a8378ed11)" style="fill: none; stroke: #424242; stroke-width: 2.25; stroke-linecap: square"/>
   </g>
   <g id="patch_51">
    <path d="M 27 384.48 
L 27 51.84 
" style="fill: none; stroke: #000000; stroke-width: 0.8; stroke-linejoin: miter; stroke-linecap: square"/>
   </g>
   <g id="patch_52">
    <path d="M 27 384.48 
L 194.4 384.48 
" style="fill: none; stroke: #000000; stroke-width: 0.8; stroke-linejoin: miter; stroke-linecap: square"/>
   </g>
  </g>
 </g>
 <defs>
  <clipPath id="p4a8378ed11">
   <rect x="27" y="51.84" width="167.4" height="332.64"/>
  </clipPath>
 </defs>
</svg>
