<?xml version="1.0" encoding="utf-8" standalone="no"?>
<!DOCTYPE svg PUBLIC "-//W3C//DTD SVG 1.1//EN"
  "http://www.w3.org/Graphics/SVG/1.1/DTD/svg11.dtd">
<svg xmlns:xlink="http://www.w3.org/1999/xlink" width="460.8pt" height="345.6pt" viewBox="0 0 460.8 345.6" xmlns="http://www.w3.org/2000/svg" version="1.1">
 <metadata>
  <rdf:RDF xmlns:dc="http://purl.org/dc/elements/1.1/" xmlns:cc="http://creativecommons.org/ns#" xmlns:rdf="http://www.w3.org/1999/02/22-rdf-syntax-ns#">
   <cc:Work>
    <dc:type rdf:resource="http://purl.org/dc/dcmitype/StillImage"/>
    <dc:date>2024-12-17T17:16:51.470840</dc:date>
    <dc:format>image/svg+xml</dc:format>
    <dc:creator>
     <cc:Agent>
      <dc:title>Matplotlib v3.8.2, https://matplotlib.org/</dc:title>
     </cc:Agent>
    </dc:creator>
   </cc:Work>
  </rdf:RDF>
 </metadata>
 <defs>
  <style type="text/css">*{stroke-linejoin: round; stroke-linecap: butt}</style>
 </defs>
 <g id="figure_1">
  <g id="patch_1">
   <path d="M 0 345.6 
L 460.8 345.6 
L 460.8 0 
L 0 0 
z
" style="fill: #ffffff"/>
  </g>
  <g id="axes_1">
   <g id="patch_2">
    <path d="M 174.461421 215.151075 
C 169.391351 202.20775 166.788942 188.428909 166.788942 174.528 
C 166.788942 160.627091 169.391351 146.84825 174.461421 133.904925 
C 166.596338 126.771387 156.826279 122.073218 146.343327 120.383659 
C 135.860375 118.6941 125.108963 120.084781 115.400913 124.386021 
C 105.692864 128.68726 97.439756 135.716703 91.648585 144.61666 
C 85.857414 153.516616 82.7737 163.909766 82.7737 174.528 
C 82.7737 185.146234 85.857414 195.539384 91.648585 204.43934 
C 97.439756 213.339297 105.692864 220.36874 115.400913 224.669979 
C 125.108963 228.971219 135.860375 230.3619 146.343327 228.672341 
C 156.826279 226.982782 166.596338 222.284613 174.461421 215.151075 
" clip-path="url(#pcb5e49fcab)" style="fill: #f0e442; opacity: 0.7"/>
   </g>
   <g id="patch_3">
    <path d="M 174.461421 133.904925 
C 180.12932 139.045642 184.659103 145.316126 187.758751 152.312142 
C 190.858399 159.308158 192.459843 166.876068 192.459843 174.528 
C 192.459843 182.179932 190.858399 189.747842 187.758751 196.743858 
C 184.659103 203.739874 180.12932 210.010358 174.461421 215.151075 
C 179.158697 227.142699 185.90048 238.229242 194.386494 247.916915 
C 202.872508 257.604588 212.974869 265.747398 224.243624 271.98267 
C 235.512379 278.217941 247.777706 282.451708 260.493318 284.4954 
C 273.208929 286.539093 286.183198 286.361913 298.838259 283.971752 
C 311.493321 281.581591 323.638461 277.014468 334.732745 270.473802 
C 345.827029 263.933135 355.703263 255.517492 363.921567 245.6017 
C 372.139871 235.685908 378.576394 224.4194 382.944458 212.303977 
C 387.312522 200.188554 389.5463 187.406799 389.5463 174.528 
C 389.5463 161.649201 387.312522 148.867446 382.944458 136.752023 
C 378.576394 124.6366 372.139871 113.370092 363.921567 103.4543 
C 355.703263 93.538508 345.827029 85.122865 334.732745 78.582198 
C 323.638461 72.041532 311.493321 67.474409 298.838259 65.084248 
C 286.183198 62.694087 273.208929 62.516907 260.493318 64.5606 
C 247.777706 66.604292 235.512379 70.838059 224.243624 77.07333 
C 212.974869 83.308602 202.872508 91.451412 194.386494 101.139085 
C 185.90048 110.826758 179.158697 121.913301 174.461421 133.904925 
" clip-path="url(#pcb5e49fcab)" style="fill: #009e73; opacity: 0.7"/>
   </g>
   <g id="patch_4">
    <path d="M 174.461421 215.151075 
C 180.12932 210.010358 184.659103 203.739874 187.758751 196.743858 
C 190.858399 189.747842 192.459843 182.179932 192.459843 174.528 
C 192.459843 166.876068 190.858399 159.308158 187.758751 152.312142 
C 184.659103 145.316126 180.12932 139.045642 174.461421 133.904925 
C 169.391351 146.84825 166.788942 160.627091 166.788942 174.528 
C 166.788942 188.428909 169.391351 202.20775 174.461421 215.151075 
" clip-path="url(#pcb5e49fcab)" style="fill: #a8ff7f; opacity: 0.7"/>
   </g>
   <g id="patch_5">
    <path d="M 137.616772 229.371071 
C 152.161324 229.371071 166.112127 223.592459 176.396679 213.307908 
C 186.681231 203.023356 192.459843 189.072553 192.459843 174.528 
C 192.459843 159.983447 186.681231 146.032644 176.396679 135.748092 
C 166.112127 125.463541 152.161324 119.684929 137.616772 119.684929 
C 123.072219 119.684929 109.121416 125.463541 98.836864 135.748092 
C 88.552312 146.032644 82.7737 159.983447 82.7737 174.528 
C 82.7737 189.072553 88.552312 203.023356 98.836864 213.307908 
C 109.121416 223.592459 123.072219 229.371071 137.616772 229.371071 
L 137.616772 229.371071 
z
" clip-path="url(#pcb5e49fcab)" style="fill: none; stroke: #000000; stroke-linejoin: miter"/>
   </g>
   <g id="patch_6">
    <path d="M 278.167621 285.906679 
C 307.705592 285.906679 336.03774 274.171119 356.92424 253.284619 
C 377.810739 232.39812 389.5463 204.065971 389.5463 174.528 
C 389.5463 144.990029 377.810739 116.65788 356.92424 95.771381 
C 336.03774 74.884881 307.705592 63.149321 278.167621 63.149321 
C 248.62965 63.149321 220.297501 74.884881 199.411002 95.771381 
C 178.524502 116.65788 166.788942 144.990029 166.788942 174.528 
C 166.788942 204.065971 178.524502 232.39812 199.411002 253.284619 
C 220.297501 274.171119 248.62965 285.906679 278.167621 285.906679 
L 278.167621 285.906679 
z
" clip-path="url(#pcb5e49fcab)" style="fill: none; stroke: #000000; stroke-linejoin: miter"/>
   </g>
   <g id="text_1">
    <!-- 72268 -->
    <g transform="translate(108.875071 177.287375) scale(0.1 -0.1)">
     <defs>
      <path id="DejaVuSans-37" d="M 525 4666 
L 3525 4666 
L 3525 4397 
L 1831 0 
L 1172 0 
L 2766 4134 
L 525 4134 
L 525 4666 
z
" transform="scale(0.015625)"/>
      <path id="DejaVuSans-32" d="M 1228 531 
L 3431 531 
L 3431 0 
L 469 0 
L 469 531 
Q 828 903 1448 1529 
Q 2069 2156 2228 2338 
Q 2531 2678 2651 2914 
Q 2772 3150 2772 3378 
Q 2772 3750 2511 3984 
Q 2250 4219 1831 4219 
Q 1534 4219 1204 4116 
Q 875 4013 500 3803 
L 500 4441 
Q 881 4594 1212 4672 
Q 1544 4750 1819 4750 
Q 2544 4750 2975 4387 
Q 3406 4025 3406 3419 
Q 3406 3131 3298 2873 
Q 3191 2616 2906 2266 
Q 2828 2175 2409 1742 
Q 1991 1309 1228 531 
z
" transform="scale(0.015625)"/>
      <path id="DejaVuSans-36" d="M 2113 2584 
Q 1688 2584 1439 2293 
Q 1191 2003 1191 1497 
Q 1191 994 1439 701 
Q 1688 409 2113 409 
Q 2538 409 2786 701 
Q 3034 994 3034 1497 
Q 3034 2003 2786 2293 
Q 2538 2584 2113 2584 
z
M 3366 4563 
L 3366 3988 
Q 3128 4100 2886 4159 
Q 2644 4219 2406 4219 
Q 1781 4219 1451 3797 
Q 1122 3375 1075 2522 
Q 1259 2794 1537 2939 
Q 1816 3084 2150 3084 
Q 2853 3084 3261 2657 
Q 3669 2231 3669 1497 
Q 3669 778 3244 343 
Q 2819 -91 2113 -91 
Q 1303 -91 875 529 
Q 447 1150 447 2328 
Q 447 3434 972 4092 
Q 1497 4750 2381 4750 
Q 2619 4750 2861 4703 
Q 3103 4656 3366 4563 
z
" transform="scale(0.015625)"/>
      <path id="DejaVuSans-38" d="M 2034 2216 
Q 1584 2216 1326 1975 
Q 1069 1734 1069 1313 
Q 1069 891 1326 650 
Q 1584 409 2034 409 
Q 2484 409 2743 651 
Q 3003 894 3003 1313 
Q 3003 1734 2745 1975 
Q 2488 2216 2034 2216 
z
M 1403 2484 
Q 997 2584 770 2862 
Q 544 3141 544 3541 
Q 544 4100 942 4425 
Q 1341 4750 2034 4750 
Q 2731 4750 3128 4425 
Q 3525 4100 3525 3541 
Q 3525 3141 3298 2862 
Q 3072 2584 2669 2484 
Q 3125 2378 3379 2068 
Q 3634 1759 3634 1313 
Q 3634 634 3220 271 
Q 2806 -91 2034 -91 
Q 1263 -91 848 271 
Q 434 634 434 1313 
Q 434 1759 690 2068 
Q 947 2378 1403 2484 
z
M 1172 3481 
Q 1172 3119 1398 2916 
Q 1625 2713 2034 2713 
Q 2441 2713 2670 2916 
Q 2900 3119 2900 3481 
Q 2900 3844 2670 4047 
Q 2441 4250 2034 4250 
Q 1625 4250 1398 4047 
Q 1172 3844 1172 3481 
z
" transform="scale(0.015625)"/>
     </defs>
     <use xlink:href="#DejaVuSans-37"/>
     <use xlink:href="#DejaVuSans-32" x="63.623047"/>
     <use xlink:href="#DejaVuSans-32" x="127.246094"/>
     <use xlink:href="#DejaVuSans-36" x="190.869141"/>
     <use xlink:href="#DejaVuSans-38" x="254.492188"/>
    </g>
   </g>
   <g id="text_2">
    <!-- 338348 -->
    <g transform="translate(271.915571 177.287375) scale(0.1 -0.1)">
     <defs>
      <path id="DejaVuSans-33" d="M 2597 2516 
Q 3050 2419 3304 2112 
Q 3559 1806 3559 1356 
Q 3559 666 3084 287 
Q 2609 -91 1734 -91 
Q 1441 -91 1130 -33 
Q 819 25 488 141 
L 488 750 
Q 750 597 1062 519 
Q 1375 441 1716 441 
Q 2309 441 2620 675 
Q 2931 909 2931 1356 
Q 2931 1769 2642 2001 
Q 2353 2234 1838 2234 
L 1294 2234 
L 1294 2753 
L 1863 2753 
Q 2328 2753 2575 2939 
Q 2822 3125 2822 3475 
Q 2822 3834 2567 4026 
Q 2313 4219 1838 4219 
Q 1578 4219 1281 4162 
Q 984 4106 628 3988 
L 628 4550 
Q 988 4650 1302 4700 
Q 1616 4750 1894 4750 
Q 2613 4750 3031 4423 
Q 3450 4097 3450 3541 
Q 3450 3153 3228 2886 
Q 3006 2619 2597 2516 
z
" transform="scale(0.015625)"/>
      <path id="DejaVuSans-34" d="M 2419 4116 
L 825 1625 
L 2419 1625 
L 2419 4116 
z
M 2253 4666 
L 3047 4666 
L 3047 1625 
L 3713 1625 
L 3713 1100 
L 3047 1100 
L 3047 0 
L 2419 0 
L 2419 1100 
L 313 1100 
L 313 1709 
L 2253 4666 
z
" transform="scale(0.015625)"/>
     </defs>
     <use xlink:href="#DejaVuSans-33"/>
     <use xlink:href="#DejaVuSans-33" x="63.623047"/>
     <use xlink:href="#DejaVuSans-38" x="127.246094"/>
     <use xlink:href="#DejaVuSans-33" x="190.869141"/>
     <use xlink:href="#DejaVuSans-34" x="254.492188"/>
     <use xlink:href="#DejaVuSans-38" x="318.115234"/>
    </g>
   </g>
   <g id="text_3">
    <!-- 12894 -->
    <g transform="translate(163.718142 177.287375) scale(0.1 -0.1)">
     <defs>
      <path id="DejaVuSans-31" d="M 794 531 
L 1825 531 
L 1825 4091 
L 703 3866 
L 703 4441 
L 1819 4666 
L 2450 4666 
L 2450 531 
L 3481 531 
L 3481 0 
L 794 0 
L 794 531 
z
" transform="scale(0.015625)"/>
      <path id="DejaVuSans-39" d="M 703 97 
L 703 672 
Q 941 559 1184 500 
Q 1428 441 1663 441 
Q 2288 441 2617 861 
Q 2947 1281 2994 2138 
Q 2813 1869 2534 1725 
Q 2256 1581 1919 1581 
Q 1219 1581 811 2004 
Q 403 2428 403 3163 
Q 403 3881 828 4315 
Q 1253 4750 1959 4750 
Q 2769 4750 3195 4129 
Q 3622 3509 3622 2328 
Q 3622 1225 3098 567 
Q 2575 -91 1691 -91 
Q 1453 -91 1209 -44 
Q 966 3 703 97 
z
M 1959 2075 
Q 2384 2075 2632 2365 
Q 2881 2656 2881 3163 
Q 2881 3666 2632 3958 
Q 2384 4250 1959 4250 
Q 1534 4250 1286 3958 
Q 1038 3666 1038 3163 
Q 1038 2656 1286 2365 
Q 1534 2075 1959 2075 
z
" transform="scale(0.015625)"/>
     </defs>
     <use xlink:href="#DejaVuSans-31"/>
     <use xlink:href="#DejaVuSans-32" x="63.623047"/>
     <use xlink:href="#DejaVuSans-38" x="127.246094"/>
     <use xlink:href="#DejaVuSans-39" x="190.869141"/>
     <use xlink:href="#DejaVuSans-34" x="254.492188"/>
    </g>
   </g>
   <g id="text_4">
    <!-- Viro3D -->
    <g transform="translate(97.463647 246.800284) scale(0.12 -0.12)">
     <defs>
      <path id="DejaVuSans-56" d="M 1831 0 
L 50 4666 
L 709 4666 
L 2188 738 
L 3669 4666 
L 4325 4666 
L 2547 0 
L 1831 0 
z
" transform="scale(0.015625)"/>
      <path id="DejaVuSans-69" d="M 603 3500 
L 1178 3500 
L 1178 0 
L 603 0 
L 603 3500 
z
M 603 4863 
L 1178 4863 
L 1178 4134 
L 603 4134 
L 603 4863 
z
" transform="scale(0.015625)"/>
      <path id="DejaVuSans-72" d="M 2631 2963 
Q 2534 3019 2420 3045 
Q 2306 3072 2169 3072 
Q 1681 3072 1420 2755 
Q 1159 2438 1159 1844 
L 1159 0 
L 581 0 
L 581 3500 
L 1159 3500 
L 1159 2956 
Q 1341 3275 1631 3429 
Q 1922 3584 2338 3584 
Q 2397 3584 2469 3576 
Q 2541 3569 2628 3553 
L 2631 2963 
z
" transform="scale(0.015625)"/>
      <path id="DejaVuSans-6f" d="M 1959 3097 
Q 1497 3097 1228 2736 
Q 959 2375 959 1747 
Q 959 1119 1226 758 
Q 1494 397 1959 397 
Q 2419 397 2687 759 
Q 2956 1122 2956 1747 
Q 2956 2369 2687 2733 
Q 2419 3097 1959 3097 
z
M 1959 3584 
Q 2709 3584 3137 3096 
Q 3566 2609 3566 1747 
Q 3566 888 3137 398 
Q 2709 -91 1959 -91 
Q 1206 -91 779 398 
Q 353 888 353 1747 
Q 353 2609 779 3096 
Q 1206 3584 1959 3584 
z
" transform="scale(0.015625)"/>
      <path id="DejaVuSans-44" d="M 1259 4147 
L 1259 519 
L 2022 519 
Q 2988 519 3436 956 
Q 3884 1394 3884 2338 
Q 3884 3275 3436 3711 
Q 2988 4147 2022 4147 
L 1259 4147 
z
M 628 4666 
L 1925 4666 
Q 3281 4666 3915 4102 
Q 4550 3538 4550 2338 
Q 4550 1131 3912 565 
Q 3275 0 1925 0 
L 628 0 
L 628 4666 
z
" transform="scale(0.015625)"/>
     </defs>
     <use xlink:href="#DejaVuSans-56"/>
     <use xlink:href="#DejaVuSans-69" x="66.158203"/>
     <use xlink:href="#DejaVuSans-72" x="93.941406"/>
     <use xlink:href="#DejaVuSans-6f" x="132.804688"/>
     <use xlink:href="#DejaVuSans-33" x="193.986328"/>
     <use xlink:href="#DejaVuSans-44" x="257.609375"/>
    </g>
   </g>
   <g id="text_5">
    <!-- BFVDB -->
    <g transform="translate(278.167621 303.335891) scale(0.12 -0.12)">
     <defs>
      <path id="DejaVuSans-42" d="M 1259 2228 
L 1259 519 
L 2272 519 
Q 2781 519 3026 730 
Q 3272 941 3272 1375 
Q 3272 1813 3026 2020 
Q 2781 2228 2272 2228 
L 1259 2228 
z
M 1259 4147 
L 1259 2741 
L 2194 2741 
Q 2656 2741 2882 2914 
Q 3109 3088 3109 3444 
Q 3109 3797 2882 3972 
Q 2656 4147 2194 4147 
L 1259 4147 
z
M 628 4666 
L 2241 4666 
Q 2963 4666 3353 4366 
Q 3744 4066 3744 3513 
Q 3744 3084 3544 2831 
Q 3344 2578 2956 2516 
Q 3422 2416 3680 2098 
Q 3938 1781 3938 1306 
Q 3938 681 3513 340 
Q 3088 0 2303 0 
L 628 0 
L 628 4666 
z
" transform="scale(0.015625)"/>
      <path id="DejaVuSans-46" d="M 628 4666 
L 3309 4666 
L 3309 4134 
L 1259 4134 
L 1259 2759 
L 3109 2759 
L 3109 2228 
L 1259 2228 
L 1259 0 
L 628 0 
L 628 4666 
z
" transform="scale(0.015625)"/>
     </defs>
     <use xlink:href="#DejaVuSans-42"/>
     <use xlink:href="#DejaVuSans-46" x="68.603516"/>
     <use xlink:href="#DejaVuSans-56" x="126.123047"/>
     <use xlink:href="#DejaVuSans-44" x="194.53125"/>
     <use xlink:href="#DejaVuSans-42" x="271.533203"/>
    </g>
   </g>
  </g>
 </g>
 <defs>
  <clipPath id="pcb5e49fcab">
   <rect x="61.096379" y="41.472" width="350.127242" height="266.112"/>
  </clipPath>
 </defs>
</svg>
