<?xml version="1.0" encoding="utf-8" standalone="no"?>
<!DOCTYPE svg PUBLIC "-//W3C//DTD SVG 1.1//EN"
  "http://www.w3.org/Graphics/SVG/1.1/DTD/svg11.dtd">
<svg xmlns:xlink="http://www.w3.org/1999/xlink" width="385.78125pt" height="155.63625pt" viewBox="0 0 385.78125 155.63625" xmlns="http://www.w3.org/2000/svg" version="1.1">
 <metadata>
  <rdf:RDF xmlns:dc="http://purl.org/dc/elements/1.1/" xmlns:cc="http://creativecommons.org/ns#" xmlns:rdf="http://www.w3.org/1999/02/22-rdf-syntax-ns#">
   <cc:Work>
    <dc:type rdf:resource="http://purl.org/dc/dcmitype/StillImage"/>
    <dc:date>2024-10-19T13:17:34.489093</dc:date>
    <dc:format>image/svg+xml</dc:format>
    <dc:creator>
     <cc:Agent>
      <dc:title>Matplotlib v3.8.2, https://matplotlib.org/</dc:title>
     </cc:Agent>
    </dc:creator>
   </cc:Work>
  </rdf:RDF>
 </metadata>
 <defs>
  <style type="text/css">*{stroke-linejoin: round; stroke-linecap: butt}</style>
 </defs>
 <g id="figure_1">
  <g id="patch_1">
   <path d="M 0 155.63625 
L 385.78125 155.63625 
L 385.78125 0 
L 0 0 
z
" style="fill: #ffffff"/>
  </g>
  <g id="axes_1">
   <g id="patch_2">
    <path d="M 43.78125 118.08 
L 378.58125 118.08 
L 378.58125 7.2 
L 43.78125 7.2 
z
" style="fill: #ffffff"/>
   </g>
   <g id="matplotlib.axis_1">
    <g id="xtick_1">
     <g id="line2d_1">
      <defs>
       <path id="m56f98f0496" d="M 0 0 
L 0 3.5 
" style="stroke: #000000; stroke-width: 0.8"/>
      </defs>
      <g>
       <use xlink:href="#m56f98f0496" x="58.999432" y="118.08" style="stroke: #000000; stroke-width: 0.8"/>
      </g>
     </g>
     <g id="text_1">
      <!-- 0.0 -->
      <g transform="translate(51.047869 132.678438) scale(0.1 -0.1)">
       <defs>
        <path id="DejaVuSans-30" d="M 2034 4250 
Q 1547 4250 1301 3770 
Q 1056 3291 1056 2328 
Q 1056 1369 1301 889 
Q 1547 409 2034 409 
Q 2525 409 2770 889 
Q 3016 1369 3016 2328 
Q 3016 3291 2770 3770 
Q 2525 4250 2034 4250 
z
M 2034 4750 
Q 2819 4750 3233 4129 
Q 3647 3509 3647 2328 
Q 3647 1150 3233 529 
Q 2819 -91 2034 -91 
Q 1250 -91 836 529 
Q 422 1150 422 2328 
Q 422 3509 836 4129 
Q 1250 4750 2034 4750 
z
" transform="scale(0.015625)"/>
        <path id="DejaVuSans-2e" d="M 684 794 
L 1344 794 
L 1344 0 
L 684 0 
L 684 794 
z
" transform="scale(0.015625)"/>
       </defs>
       <use xlink:href="#DejaVuSans-30"/>
       <use xlink:href="#DejaVuSans-2e" x="63.623047"/>
       <use xlink:href="#DejaVuSans-30" x="95.410156"/>
      </g>
     </g>
    </g>
    <g id="xtick_2">
     <g id="line2d_2">
      <g>
       <use xlink:href="#m56f98f0496" x="119.872159" y="118.08" style="stroke: #000000; stroke-width: 0.8"/>
      </g>
     </g>
     <g id="text_2">
      <!-- 0.2 -->
      <g transform="translate(111.920597 132.678438) scale(0.1 -0.1)">
       <defs>
        <path id="DejaVuSans-32" d="M 1228 531 
L 3431 531 
L 3431 0 
L 469 0 
L 469 531 
Q 828 903 1448 1529 
Q 2069 2156 2228 2338 
Q 2531 2678 2651 2914 
Q 2772 3150 2772 3378 
Q 2772 3750 2511 3984 
Q 2250 4219 1831 4219 
Q 1534 4219 1204 4116 
Q 875 4013 500 3803 
L 500 4441 
Q 881 4594 1212 4672 
Q 1544 4750 1819 4750 
Q 2544 4750 2975 4387 
Q 3406 4025 3406 3419 
Q 3406 3131 3298 2873 
Q 3191 2616 2906 2266 
Q 2828 2175 2409 1742 
Q 1991 1309 1228 531 
z
" transform="scale(0.015625)"/>
       </defs>
       <use xlink:href="#DejaVuSans-30"/>
       <use xlink:href="#DejaVuSans-2e" x="63.623047"/>
       <use xlink:href="#DejaVuSans-32" x="95.410156"/>
      </g>
     </g>
    </g>
    <g id="xtick_3">
     <g id="line2d_3">
      <g>
       <use xlink:href="#m56f98f0496" x="180.744886" y="118.08" style="stroke: #000000; stroke-width: 0.8"/>
      </g>
     </g>
     <g id="text_3">
      <!-- 0.4 -->
      <g transform="translate(172.793324 132.678438) scale(0.1 -0.1)">
       <defs>
        <path id="DejaVuSans-34" d="M 2419 4116 
L 825 1625 
L 2419 1625 
L 2419 4116 
z
M 2253 4666 
L 3047 4666 
L 3047 1625 
L 3713 1625 
L 3713 1100 
L 3047 1100 
L 3047 0 
L 2419 0 
L 2419 1100 
L 313 1100 
L 313 1709 
L 2253 4666 
z
" transform="scale(0.015625)"/>
       </defs>
       <use xlink:href="#DejaVuSans-30"/>
       <use xlink:href="#DejaVuSans-2e" x="63.623047"/>
       <use xlink:href="#DejaVuSans-34" x="95.410156"/>
      </g>
     </g>
    </g>
    <g id="xtick_4">
     <g id="line2d_4">
      <g>
       <use xlink:href="#m56f98f0496" x="241.617614" y="118.08" style="stroke: #000000; stroke-width: 0.8"/>
      </g>
     </g>
     <g id="text_4">
      <!-- 0.6 -->
      <g transform="translate(233.666051 132.678438) scale(0.1 -0.1)">
       <defs>
        <path id="DejaVuSans-36" d="M 2113 2584 
Q 1688 2584 1439 2293 
Q 1191 2003 1191 1497 
Q 1191 994 1439 701 
Q 1688 409 2113 409 
Q 2538 409 2786 701 
Q 3034 994 3034 1497 
Q 3034 2003 2786 2293 
Q 2538 2584 2113 2584 
z
M 3366 4563 
L 3366 3988 
Q 3128 4100 2886 4159 
Q 2644 4219 2406 4219 
Q 1781 4219 1451 3797 
Q 1122 3375 1075 2522 
Q 1259 2794 1537 2939 
Q 1816 3084 2150 3084 
Q 2853 3084 3261 2657 
Q 3669 2231 3669 1497 
Q 3669 778 3244 343 
Q 2819 -91 2113 -91 
Q 1303 -91 875 529 
Q 447 1150 447 2328 
Q 447 3434 972 4092 
Q 1497 4750 2381 4750 
Q 2619 4750 2861 4703 
Q 3103 4656 3366 4563 
z
" transform="scale(0.015625)"/>
       </defs>
       <use xlink:href="#DejaVuSans-30"/>
       <use xlink:href="#DejaVuSans-2e" x="63.623047"/>
       <use xlink:href="#DejaVuSans-36" x="95.410156"/>
      </g>
     </g>
    </g>
    <g id="xtick_5">
     <g id="line2d_5">
      <g>
       <use xlink:href="#m56f98f0496" x="302.490341" y="118.08" style="stroke: #000000; stroke-width: 0.8"/>
      </g>
     </g>
     <g id="text_5">
      <!-- 0.8 -->
      <g transform="translate(294.538778 132.678438) scale(0.1 -0.1)">
       <defs>
        <path id="DejaVuSans-38" d="M 2034 2216 
Q 1584 2216 1326 1975 
Q 1069 1734 1069 1313 
Q 1069 891 1326 650 
Q 1584 409 2034 409 
Q 2484 409 2743 651 
Q 3003 894 3003 1313 
Q 3003 1734 2745 1975 
Q 2488 2216 2034 2216 
z
M 1403 2484 
Q 997 2584 770 2862 
Q 544 3141 544 3541 
Q 544 4100 942 4425 
Q 1341 4750 2034 4750 
Q 2731 4750 3128 4425 
Q 3525 4100 3525 3541 
Q 3525 3141 3298 2862 
Q 3072 2584 2669 2484 
Q 3125 2378 3379 2068 
Q 3634 1759 3634 1313 
Q 3634 634 3220 271 
Q 2806 -91 2034 -91 
Q 1263 -91 848 271 
Q 434 634 434 1313 
Q 434 1759 690 2068 
Q 947 2378 1403 2484 
z
M 1172 3481 
Q 1172 3119 1398 2916 
Q 1625 2713 2034 2713 
Q 2441 2713 2670 2916 
Q 2900 3119 2900 3481 
Q 2900 3844 2670 4047 
Q 2441 4250 2034 4250 
Q 1625 4250 1398 4047 
Q 1172 3844 1172 3481 
z
" transform="scale(0.015625)"/>
       </defs>
       <use xlink:href="#DejaVuSans-30"/>
       <use xlink:href="#DejaVuSans-2e" x="63.623047"/>
       <use xlink:href="#DejaVuSans-38" x="95.410156"/>
      </g>
     </g>
    </g>
    <g id="xtick_6">
     <g id="line2d_6">
      <g>
       <use xlink:href="#m56f98f0496" x="363.363068" y="118.08" style="stroke: #000000; stroke-width: 0.8"/>
      </g>
     </g>
     <g id="text_6">
      <!-- 1.0 -->
      <g transform="translate(355.411506 132.678438) scale(0.1 -0.1)">
       <defs>
        <path id="DejaVuSans-31" d="M 794 531 
L 1825 531 
L 1825 4091 
L 703 3866 
L 703 4441 
L 1819 4666 
L 2450 4666 
L 2450 531 
L 3481 531 
L 3481 0 
L 794 0 
L 794 531 
z
" transform="scale(0.015625)"/>
       </defs>
       <use xlink:href="#DejaVuSans-31"/>
       <use xlink:href="#DejaVuSans-2e" x="63.623047"/>
       <use xlink:href="#DejaVuSans-30" x="95.410156"/>
      </g>
     </g>
    </g>
    <g id="text_7">
     <!-- Normalised gene centre position -->
     <g transform="translate(129.803125 146.356562) scale(0.1 -0.1)">
      <defs>
       <path id="DejaVuSans-4e" d="M 628 4666 
L 1478 4666 
L 3547 763 
L 3547 4666 
L 4159 4666 
L 4159 0 
L 3309 0 
L 1241 3903 
L 1241 0 
L 628 0 
L 628 4666 
z
" transform="scale(0.015625)"/>
       <path id="DejaVuSans-6f" d="M 1959 3097 
Q 1497 3097 1228 2736 
Q 959 2375 959 1747 
Q 959 1119 1226 758 
Q 1494 397 1959 397 
Q 2419 397 2687 759 
Q 2956 1122 2956 1747 
Q 2956 2369 2687 2733 
Q 2419 3097 1959 3097 
z
M 1959 3584 
Q 2709 3584 3137 3096 
Q 3566 2609 3566 1747 
Q 3566 888 3137 398 
Q 2709 -91 1959 -91 
Q 1206 -91 779 398 
Q 353 888 353 1747 
Q 353 2609 779 3096 
Q 1206 3584 1959 3584 
z
" transform="scale(0.015625)"/>
       <path id="DejaVuSans-72" d="M 2631 2963 
Q 2534 3019 2420 3045 
Q 2306 3072 2169 3072 
Q 1681 3072 1420 2755 
Q 1159 2438 1159 1844 
L 1159 0 
L 581 0 
L 581 3500 
L 1159 3500 
L 1159 2956 
Q 1341 3275 1631 3429 
Q 1922 3584 2338 3584 
Q 2397 3584 2469 3576 
Q 2541 3569 2628 3553 
L 2631 2963 
z
" transform="scale(0.015625)"/>
       <path id="DejaVuSans-6d" d="M 3328 2828 
Q 3544 3216 3844 3400 
Q 4144 3584 4550 3584 
Q 5097 3584 5394 3201 
Q 5691 2819 5691 2113 
L 5691 0 
L 5113 0 
L 5113 2094 
Q 5113 2597 4934 2840 
Q 4756 3084 4391 3084 
Q 3944 3084 3684 2787 
Q 3425 2491 3425 1978 
L 3425 0 
L 2847 0 
L 2847 2094 
Q 2847 2600 2669 2842 
Q 2491 3084 2119 3084 
Q 1678 3084 1418 2786 
Q 1159 2488 1159 1978 
L 1159 0 
L 581 0 
L 581 3500 
L 1159 3500 
L 1159 2956 
Q 1356 3278 1631 3431 
Q 1906 3584 2284 3584 
Q 2666 3584 2933 3390 
Q 3200 3197 3328 2828 
z
" transform="scale(0.015625)"/>
       <path id="DejaVuSans-61" d="M 2194 1759 
Q 1497 1759 1228 1600 
Q 959 1441 959 1056 
Q 959 750 1161 570 
Q 1363 391 1709 391 
Q 2188 391 2477 730 
Q 2766 1069 2766 1631 
L 2766 1759 
L 2194 1759 
z
M 3341 1997 
L 3341 0 
L 2766 0 
L 2766 531 
Q 2569 213 2275 61 
Q 1981 -91 1556 -91 
Q 1019 -91 701 211 
Q 384 513 384 1019 
Q 384 1609 779 1909 
Q 1175 2209 1959 2209 
L 2766 2209 
L 2766 2266 
Q 2766 2663 2505 2880 
Q 2244 3097 1772 3097 
Q 1472 3097 1187 3025 
Q 903 2953 641 2809 
L 641 3341 
Q 956 3463 1253 3523 
Q 1550 3584 1831 3584 
Q 2591 3584 2966 3190 
Q 3341 2797 3341 1997 
z
" transform="scale(0.015625)"/>
       <path id="DejaVuSans-6c" d="M 603 4863 
L 1178 4863 
L 1178 0 
L 603 0 
L 603 4863 
z
" transform="scale(0.015625)"/>
       <path id="DejaVuSans-69" d="M 603 3500 
L 1178 3500 
L 1178 0 
L 603 0 
L 603 3500 
z
M 603 4863 
L 1178 4863 
L 1178 4134 
L 603 4134 
L 603 4863 
z
" transform="scale(0.015625)"/>
       <path id="DejaVuSans-73" d="M 2834 3397 
L 2834 2853 
Q 2591 2978 2328 3040 
Q 2066 3103 1784 3103 
Q 1356 3103 1142 2972 
Q 928 2841 928 2578 
Q 928 2378 1081 2264 
Q 1234 2150 1697 2047 
L 1894 2003 
Q 2506 1872 2764 1633 
Q 3022 1394 3022 966 
Q 3022 478 2636 193 
Q 2250 -91 1575 -91 
Q 1294 -91 989 -36 
Q 684 19 347 128 
L 347 722 
Q 666 556 975 473 
Q 1284 391 1588 391 
Q 1994 391 2212 530 
Q 2431 669 2431 922 
Q 2431 1156 2273 1281 
Q 2116 1406 1581 1522 
L 1381 1569 
Q 847 1681 609 1914 
Q 372 2147 372 2553 
Q 372 3047 722 3315 
Q 1072 3584 1716 3584 
Q 2034 3584 2315 3537 
Q 2597 3491 2834 3397 
z
" transform="scale(0.015625)"/>
       <path id="DejaVuSans-65" d="M 3597 1894 
L 3597 1613 
L 953 1613 
Q 991 1019 1311 708 
Q 1631 397 2203 397 
Q 2534 397 2845 478 
Q 3156 559 3463 722 
L 3463 178 
Q 3153 47 2828 -22 
Q 2503 -91 2169 -91 
Q 1331 -91 842 396 
Q 353 884 353 1716 
Q 353 2575 817 3079 
Q 1281 3584 2069 3584 
Q 2775 3584 3186 3129 
Q 3597 2675 3597 1894 
z
M 3022 2063 
Q 3016 2534 2758 2815 
Q 2500 3097 2075 3097 
Q 1594 3097 1305 2825 
Q 1016 2553 972 2059 
L 3022 2063 
z
" transform="scale(0.015625)"/>
       <path id="DejaVuSans-64" d="M 2906 2969 
L 2906 4863 
L 3481 4863 
L 3481 0 
L 2906 0 
L 2906 525 
Q 2725 213 2448 61 
Q 2172 -91 1784 -91 
Q 1150 -91 751 415 
Q 353 922 353 1747 
Q 353 2572 751 3078 
Q 1150 3584 1784 3584 
Q 2172 3584 2448 3432 
Q 2725 3281 2906 2969 
z
M 947 1747 
Q 947 1113 1208 752 
Q 1469 391 1925 391 
Q 2381 391 2643 752 
Q 2906 1113 2906 1747 
Q 2906 2381 2643 2742 
Q 2381 3103 1925 3103 
Q 1469 3103 1208 2742 
Q 947 2381 947 1747 
z
" transform="scale(0.015625)"/>
       <path id="DejaVuSans-20" transform="scale(0.015625)"/>
       <path id="DejaVuSans-67" d="M 2906 1791 
Q 2906 2416 2648 2759 
Q 2391 3103 1925 3103 
Q 1463 3103 1205 2759 
Q 947 2416 947 1791 
Q 947 1169 1205 825 
Q 1463 481 1925 481 
Q 2391 481 2648 825 
Q 2906 1169 2906 1791 
z
M 3481 434 
Q 3481 -459 3084 -895 
Q 2688 -1331 1869 -1331 
Q 1566 -1331 1297 -1286 
Q 1028 -1241 775 -1147 
L 775 -588 
Q 1028 -725 1275 -790 
Q 1522 -856 1778 -856 
Q 2344 -856 2625 -561 
Q 2906 -266 2906 331 
L 2906 616 
Q 2728 306 2450 153 
Q 2172 0 1784 0 
Q 1141 0 747 490 
Q 353 981 353 1791 
Q 353 2603 747 3093 
Q 1141 3584 1784 3584 
Q 2172 3584 2450 3431 
Q 2728 3278 2906 2969 
L 2906 3500 
L 3481 3500 
L 3481 434 
z
" transform="scale(0.015625)"/>
       <path id="DejaVuSans-6e" d="M 3513 2113 
L 3513 0 
L 2938 0 
L 2938 2094 
Q 2938 2591 2744 2837 
Q 2550 3084 2163 3084 
Q 1697 3084 1428 2787 
Q 1159 2491 1159 1978 
L 1159 0 
L 581 0 
L 581 3500 
L 1159 3500 
L 1159 2956 
Q 1366 3272 1645 3428 
Q 1925 3584 2291 3584 
Q 2894 3584 3203 3211 
Q 3513 2838 3513 2113 
z
" transform="scale(0.015625)"/>
       <path id="DejaVuSans-63" d="M 3122 3366 
L 3122 2828 
Q 2878 2963 2633 3030 
Q 2388 3097 2138 3097 
Q 1578 3097 1268 2742 
Q 959 2388 959 1747 
Q 959 1106 1268 751 
Q 1578 397 2138 397 
Q 2388 397 2633 464 
Q 2878 531 3122 666 
L 3122 134 
Q 2881 22 2623 -34 
Q 2366 -91 2075 -91 
Q 1284 -91 818 406 
Q 353 903 353 1747 
Q 353 2603 823 3093 
Q 1294 3584 2113 3584 
Q 2378 3584 2631 3529 
Q 2884 3475 3122 3366 
z
" transform="scale(0.015625)"/>
       <path id="DejaVuSans-74" d="M 1172 4494 
L 1172 3500 
L 2356 3500 
L 2356 3053 
L 1172 3053 
L 1172 1153 
Q 1172 725 1289 603 
Q 1406 481 1766 481 
L 2356 481 
L 2356 0 
L 1766 0 
Q 1100 0 847 248 
Q 594 497 594 1153 
L 594 3053 
L 172 3053 
L 172 3500 
L 594 3500 
L 594 4494 
L 1172 4494 
z
" transform="scale(0.015625)"/>
       <path id="DejaVuSans-70" d="M 1159 525 
L 1159 -1331 
L 581 -1331 
L 581 3500 
L 1159 3500 
L 1159 2969 
Q 1341 3281 1617 3432 
Q 1894 3584 2278 3584 
Q 2916 3584 3314 3078 
Q 3713 2572 3713 1747 
Q 3713 922 3314 415 
Q 2916 -91 2278 -91 
Q 1894 -91 1617 61 
Q 1341 213 1159 525 
z
M 3116 1747 
Q 3116 2381 2855 2742 
Q 2594 3103 2138 3103 
Q 1681 3103 1420 2742 
Q 1159 2381 1159 1747 
Q 1159 1113 1420 752 
Q 1681 391 2138 391 
Q 2594 391 2855 752 
Q 3116 1113 3116 1747 
z
" transform="scale(0.015625)"/>
      </defs>
      <use xlink:href="#DejaVuSans-4e"/>
      <use xlink:href="#DejaVuSans-6f" x="74.804688"/>
      <use xlink:href="#DejaVuSans-72" x="135.986328"/>
      <use xlink:href="#DejaVuSans-6d" x="175.349609"/>
      <use xlink:href="#DejaVuSans-61" x="272.761719"/>
      <use xlink:href="#DejaVuSans-6c" x="334.041016"/>
      <use xlink:href="#DejaVuSans-69" x="361.824219"/>
      <use xlink:href="#DejaVuSans-73" x="389.607422"/>
      <use xlink:href="#DejaVuSans-65" x="441.707031"/>
      <use xlink:href="#DejaVuSans-64" x="503.230469"/>
      <use xlink:href="#DejaVuSans-20" x="566.707031"/>
      <use xlink:href="#DejaVuSans-67" x="598.494141"/>
      <use xlink:href="#DejaVuSans-65" x="661.970703"/>
      <use xlink:href="#DejaVuSans-6e" x="723.494141"/>
      <use xlink:href="#DejaVuSans-65" x="786.873047"/>
      <use xlink:href="#DejaVuSans-20" x="848.396484"/>
      <use xlink:href="#DejaVuSans-63" x="880.183594"/>
      <use xlink:href="#DejaVuSans-65" x="935.164062"/>
      <use xlink:href="#DejaVuSans-6e" x="996.6875"/>
      <use xlink:href="#DejaVuSans-74" x="1060.066406"/>
      <use xlink:href="#DejaVuSans-72" x="1099.275391"/>
      <use xlink:href="#DejaVuSans-65" x="1138.138672"/>
      <use xlink:href="#DejaVuSans-20" x="1199.662109"/>
      <use xlink:href="#DejaVuSans-70" x="1231.449219"/>
      <use xlink:href="#DejaVuSans-6f" x="1294.925781"/>
      <use xlink:href="#DejaVuSans-73" x="1356.107422"/>
      <use xlink:href="#DejaVuSans-69" x="1408.207031"/>
      <use xlink:href="#DejaVuSans-74" x="1435.990234"/>
      <use xlink:href="#DejaVuSans-69" x="1475.199219"/>
      <use xlink:href="#DejaVuSans-6f" x="1502.982422"/>
      <use xlink:href="#DejaVuSans-6e" x="1564.164062"/>
     </g>
    </g>
   </g>
   <g id="matplotlib.axis_2">
    <g id="ytick_1">
     <g id="line2d_7">
      <defs>
       <path id="mc843d17caf" d="M 0 0 
L -3.5 0 
" style="stroke: #000000; stroke-width: 0.8"/>
      </defs>
      <g>
       <use xlink:href="#mc843d17caf" x="43.78125" y="96.848767" style="stroke: #000000; stroke-width: 0.8"/>
      </g>
     </g>
     <g id="text_8">
      <!-- 0.4 -->
      <g transform="translate(20.878125 100.647986) scale(0.1 -0.1)">
       <use xlink:href="#DejaVuSans-30"/>
       <use xlink:href="#DejaVuSans-2e" x="63.623047"/>
       <use xlink:href="#DejaVuSans-34" x="95.410156"/>
      </g>
     </g>
    </g>
    <g id="ytick_2">
     <g id="line2d_8">
      <g>
       <use xlink:href="#mc843d17caf" x="43.78125" y="68.645845" style="stroke: #000000; stroke-width: 0.8"/>
      </g>
     </g>
     <g id="text_9">
      <!-- 0.6 -->
      <g transform="translate(20.878125 72.445064) scale(0.1 -0.1)">
       <use xlink:href="#DejaVuSans-30"/>
       <use xlink:href="#DejaVuSans-2e" x="63.623047"/>
       <use xlink:href="#DejaVuSans-36" x="95.410156"/>
      </g>
     </g>
    </g>
    <g id="ytick_3">
     <g id="line2d_9">
      <g>
       <use xlink:href="#mc843d17caf" x="43.78125" y="40.442922" style="stroke: #000000; stroke-width: 0.8"/>
      </g>
     </g>
     <g id="text_10">
      <!-- 0.8 -->
      <g transform="translate(20.878125 44.242141) scale(0.1 -0.1)">
       <use xlink:href="#DejaVuSans-30"/>
       <use xlink:href="#DejaVuSans-2e" x="63.623047"/>
       <use xlink:href="#DejaVuSans-38" x="95.410156"/>
      </g>
     </g>
    </g>
    <g id="ytick_4">
     <g id="line2d_10">
      <g>
       <use xlink:href="#mc843d17caf" x="43.78125" y="12.24" style="stroke: #000000; stroke-width: 0.8"/>
      </g>
     </g>
     <g id="text_11">
      <!-- 1.0 -->
      <g transform="translate(20.878125 16.039219) scale(0.1 -0.1)">
       <use xlink:href="#DejaVuSans-31"/>
       <use xlink:href="#DejaVuSans-2e" x="63.623047"/>
       <use xlink:href="#DejaVuSans-30" x="95.410156"/>
      </g>
     </g>
    </g>
    <g id="text_12">
     <!-- Normalized Density -->
     <g transform="translate(14.798438 111.593125) rotate(-90) scale(0.1 -0.1)">
      <defs>
       <path id="DejaVuSans-7a" d="M 353 3500 
L 3084 3500 
L 3084 2975 
L 922 459 
L 3084 459 
L 3084 0 
L 275 0 
L 275 525 
L 2438 3041 
L 353 3041 
L 353 3500 
z
" transform="scale(0.015625)"/>
       <path id="DejaVuSans-44" d="M 1259 4147 
L 1259 519 
L 2022 519 
Q 2988 519 3436 956 
Q 3884 1394 3884 2338 
Q 3884 3275 3436 3711 
Q 2988 4147 2022 4147 
L 1259 4147 
z
M 628 4666 
L 1925 4666 
Q 3281 4666 3915 4102 
Q 4550 3538 4550 2338 
Q 4550 1131 3912 565 
Q 3275 0 1925 0 
L 628 0 
L 628 4666 
z
" transform="scale(0.015625)"/>
       <path id="DejaVuSans-79" d="M 2059 -325 
Q 1816 -950 1584 -1140 
Q 1353 -1331 966 -1331 
L 506 -1331 
L 506 -850 
L 844 -850 
Q 1081 -850 1212 -737 
Q 1344 -625 1503 -206 
L 1606 56 
L 191 3500 
L 800 3500 
L 1894 763 
L 2988 3500 
L 3597 3500 
L 2059 -325 
z
" transform="scale(0.015625)"/>
      </defs>
      <use xlink:href="#DejaVuSans-4e"/>
      <use xlink:href="#DejaVuSans-6f" x="74.804688"/>
      <use xlink:href="#DejaVuSans-72" x="135.986328"/>
      <use xlink:href="#DejaVuSans-6d" x="175.349609"/>
      <use xlink:href="#DejaVuSans-61" x="272.761719"/>
      <use xlink:href="#DejaVuSans-6c" x="334.041016"/>
      <use xlink:href="#DejaVuSans-69" x="361.824219"/>
      <use xlink:href="#DejaVuSans-7a" x="389.607422"/>
      <use xlink:href="#DejaVuSans-65" x="442.097656"/>
      <use xlink:href="#DejaVuSans-64" x="503.621094"/>
      <use xlink:href="#DejaVuSans-20" x="567.097656"/>
      <use xlink:href="#DejaVuSans-44" x="598.884766"/>
      <use xlink:href="#DejaVuSans-65" x="675.886719"/>
      <use xlink:href="#DejaVuSans-6e" x="737.410156"/>
      <use xlink:href="#DejaVuSans-73" x="800.789062"/>
      <use xlink:href="#DejaVuSans-69" x="852.888672"/>
      <use xlink:href="#DejaVuSans-74" x="880.671875"/>
      <use xlink:href="#DejaVuSans-79" x="919.880859"/>
     </g>
    </g>
   </g>
   <g id="line2d_11">
    <path d="M 58.999432 107.693367 
L 62.96012 87.630406 
L 65.702135 74.203496 
L 67.834813 64.849391 
L 69.662822 57.908764 
L 71.186164 52.990436 
L 72.709506 48.887162 
L 73.928179 46.179668 
L 75.146852 43.954892 
L 76.365525 42.173478 
L 77.584198 40.78728 
L 78.802872 39.742849 
L 80.021545 38.984806 
L 81.240218 38.458903 
L 82.76356 38.05146 
L 84.591569 37.817519 
L 87.028916 37.754077 
L 92.817614 37.926902 
L 97.387638 37.939455 
L 101.652994 37.709854 
L 106.832356 37.428658 
L 109.57437 37.523462 
L 112.621053 37.885008 
L 117.495746 38.523364 
L 119.628424 38.53857 
L 121.456434 38.327884 
L 123.284444 37.897975 
L 125.417122 37.154301 
L 128.463805 35.819934 
L 132.119825 34.260202 
L 134.252503 33.599087 
L 136.080513 33.270249 
L 137.603854 33.195866 
L 139.127196 33.317843 
L 140.650537 33.639471 
L 142.478547 34.277227 
L 144.306557 35.15596 
L 146.743904 36.604105 
L 154.360611 41.373754 
L 156.493289 42.348075 
L 158.321299 42.970083 
L 160.149309 43.376 
L 161.977319 43.553973 
L 163.805329 43.497627 
L 165.633338 43.207447 
L 167.461348 42.693023 
L 169.594026 41.83691 
L 172.031373 40.581999 
L 175.078056 38.731339 
L 181.171422 34.681942 
L 187.874125 30.071236 
L 190.311471 28.139633 
L 192.444149 26.185967 
L 194.576827 23.923295 
L 197.014174 20.982862 
L 201.584198 15.323428 
L 203.10754 13.826988 
L 204.326213 12.934426 
L 205.240218 12.488625 
L 206.154223 12.262755 
L 207.068228 12.277069 
L 207.982233 12.545958 
L 208.896238 13.077232 
L 209.810243 13.871722 
L 210.724248 14.923226 
L 211.942921 16.701723 
L 213.161594 18.865957 
L 214.684936 22.016297 
L 216.817614 26.9903 
L 221.996975 39.371758 
L 223.824985 43.121377 
L 225.348326 45.809503 
L 226.871668 48.043217 
L 228.090341 49.480508 
L 229.309014 50.597646 
L 230.527687 51.393681 
L 231.746361 51.874854 
L 232.965034 52.054875 
L 234.183707 51.955301 
L 235.40238 51.605849 
L 236.925722 50.87607 
L 238.753732 49.692142 
L 243.933093 46.086587 
L 245.456434 45.375473 
L 246.675107 45.010709 
L 247.893781 44.840484 
L 249.112454 44.859868 
L 250.635795 45.117915 
L 252.463805 45.67381 
L 256.729162 47.076987 
L 258.252503 47.289563 
L 259.471176 47.261697 
L 260.68985 47.033711 
L 261.908523 46.597276 
L 263.127196 45.956872 
L 264.650537 44.894673 
L 266.478547 43.305454 
L 268.915894 40.841426 
L 274.399923 35.173288 
L 276.532601 33.307585 
L 278.360611 31.964999 
L 280.188621 30.90638 
L 281.711963 30.276152 
L 283.235304 29.908724 
L 284.453977 29.826287 
L 285.67265 29.949042 
L 286.891324 30.28955 
L 288.109997 30.85502 
L 289.32867 31.645323 
L 290.852012 32.93476 
L 292.375353 34.522015 
L 294.508031 37.124265 
L 301.210734 45.707785 
L 303.038744 47.529208 
L 304.562085 48.754365 
L 306.085427 49.696947 
L 307.608768 50.35651 
L 309.13211 50.741645 
L 310.655451 50.865181 
L 312.178793 50.740806 
L 313.702135 50.381858 
L 315.225476 49.80249 
L 317.053486 48.842375 
L 319.186164 47.420201 
L 322.842184 44.606211 
L 324.974862 43.087711 
L 326.498203 42.229932 
L 327.716877 41.747194 
L 328.93555 41.486315 
L 330.154223 41.475108 
L 331.372896 41.729497 
L 332.591569 42.25228 
L 333.810243 43.033213 
L 335.333584 44.33824 
L 336.856926 45.950708 
L 338.989604 48.589566 
L 341.731619 52.388477 
L 344.778302 56.974746 
L 347.215648 61.056436 
L 349.043658 64.546158 
L 350.871668 68.570658 
L 352.395009 72.430557 
L 354.223019 77.745681 
L 356.051029 83.820379 
L 358.183707 91.767216 
L 361.23039 104.180841 
L 363.363068 113.04 
L 363.363068 113.04 
" clip-path="url(#p69b7559789)" style="fill: none; stroke: #1f77b4; stroke-width: 1.5; stroke-linecap: square"/>
   </g>
   <g id="line2d_12">
    <path d="M 58.999432 93.131213 
L 68.444149 57.296679 
L 71.186164 48.131669 
L 73.318842 41.696683 
L 75.45152 35.935515 
L 77.27953 31.554933 
L 79.10754 27.690189 
L 80.93555 24.329382 
L 82.76356 21.451273 
L 84.591569 19.028366 
L 86.419579 17.029724 
L 87.942921 15.665161 
L 89.466262 14.554717 
L 90.989604 13.680928 
L 92.512945 13.027369 
L 94.036287 12.578731 
L 95.864297 12.290834 
L 97.692307 12.254448 
L 99.520316 12.447657 
L 101.348326 12.849022 
L 103.481004 13.551551 
L 105.918351 14.619922 
L 108.660365 16.093756 
L 112.011717 18.168707 
L 124.503117 26.191791 
L 127.854469 27.954772 
L 131.510488 29.6264 
L 136.080513 31.456192 
L 144.611225 34.829021 
L 149.18125 36.913491 
L 160.758646 42.374125 
L 163.805329 43.452314 
L 166.547343 44.174648 
L 168.98469 44.60007 
L 171.422036 44.821446 
L 174.164051 44.84433 
L 177.210734 44.63173 
L 180.866754 44.134009 
L 186.96012 43.024751 
L 192.444149 42.099413 
L 195.795501 41.740223 
L 198.537515 41.649263 
L 200.974862 41.77566 
L 203.10754 42.08228 
L 205.240218 42.599812 
L 207.372896 43.349232 
L 209.505574 44.343019 
L 211.638252 45.582618 
L 214.075599 47.285073 
L 216.817614 49.516681 
L 220.168965 52.570688 
L 227.785673 59.667509 
L 230.223019 61.607517 
L 232.355697 63.044414 
L 234.183707 64.04045 
L 236.011717 64.789813 
L 237.839727 65.270574 
L 239.363068 65.454244 
L 240.88641 65.434028 
L 242.409751 65.206849 
L 243.933093 64.7727 
L 245.456434 64.134706 
L 247.284444 63.109158 
L 249.112454 61.816414 
L 251.245132 60.002648 
L 253.682479 57.588074 
L 256.729162 54.193671 
L 266.173879 43.320645 
L 268.611225 40.995107 
L 270.743904 39.262264 
L 272.876582 37.842808 
L 274.704592 36.88314 
L 276.532601 36.154771 
L 278.360611 35.641281 
L 280.493289 35.279371 
L 282.930636 35.113083 
L 286.281987 35.151039 
L 292.375353 35.279431 
L 295.117368 35.106557 
L 297.859383 34.701299 
L 300.601397 34.048336 
L 303.343412 33.165431 
L 306.694764 31.838311 
L 311.874125 29.49651 
L 317.662822 26.93015 
L 321.014174 25.672051 
L 323.756189 24.85293 
L 326.193535 24.336184 
L 328.326213 24.089664 
L 330.458891 24.079745 
L 332.286901 24.298275 
L 334.114911 24.76565 
L 335.638252 25.375117 
L 337.161594 26.212034 
L 338.684936 27.303151 
L 340.208277 28.675345 
L 341.731619 30.354643 
L 343.25496 32.365095 
L 344.778302 34.727536 
L 346.301643 37.4583 
L 348.129653 41.235784 
L 349.957663 45.563279 
L 351.785673 50.428693 
L 353.918351 56.74291 
L 356.355697 64.697291 
L 359.40238 75.482923 
L 363.363068 90.200881 
L 363.363068 90.200881 
" clip-path="url(#p69b7559789)" style="fill: none; stroke: #ff7f0e; stroke-width: 1.5; stroke-linecap: square"/>
   </g>
   <g id="patch_3">
    <path d="M 43.78125 118.08 
L 43.78125 7.2 
" style="fill: none; stroke: #000000; stroke-width: 0.8; stroke-linejoin: miter; stroke-linecap: square"/>
   </g>
   <g id="patch_4">
    <path d="M 378.58125 118.08 
L 378.58125 7.2 
" style="fill: none; stroke: #000000; stroke-width: 0.8; stroke-linejoin: miter; stroke-linecap: square"/>
   </g>
   <g id="patch_5">
    <path d="M 43.78125 118.08 
L 378.58125 118.08 
" style="fill: none; stroke: #000000; stroke-width: 0.8; stroke-linejoin: miter; stroke-linecap: square"/>
   </g>
   <g id="patch_6">
    <path d="M 43.78125 7.2 
L 378.58125 7.2 
" style="fill: none; stroke: #000000; stroke-width: 0.8; stroke-linejoin: miter; stroke-linecap: square"/>
   </g>
   <g id="legend_1">
    <g id="patch_7">
     <path d="M 158.385156 113.08 
L 263.977344 113.08 
Q 265.977344 113.08 265.977344 111.08 
L 265.977344 82.72375 
Q 265.977344 80.72375 263.977344 80.72375 
L 158.385156 80.72375 
Q 156.385156 80.72375 156.385156 82.72375 
L 156.385156 111.08 
Q 156.385156 113.08 158.385156 113.08 
z
" style="fill: #ffffff; opacity: 0.8; stroke: #cccccc; stroke-linejoin: miter"/>
    </g>
    <g id="line2d_13">
     <path d="M 160.385156 88.822187 
L 170.385156 88.822187 
L 180.385156 88.822187 
" style="fill: none; stroke: #1f77b4; stroke-width: 1.5; stroke-linecap: square"/>
    </g>
    <g id="text_13">
     <!-- non-singletons -->
     <g transform="translate(188.385156 92.322187) scale(0.1 -0.1)">
      <defs>
       <path id="DejaVuSans-2d" d="M 313 2009 
L 1997 2009 
L 1997 1497 
L 313 1497 
L 313 2009 
z
" transform="scale(0.015625)"/>
      </defs>
      <use xlink:href="#DejaVuSans-6e"/>
      <use xlink:href="#DejaVuSans-6f" x="63.378906"/>
      <use xlink:href="#DejaVuSans-6e" x="124.560547"/>
      <use xlink:href="#DejaVuSans-2d" x="187.939453"/>
      <use xlink:href="#DejaVuSans-73" x="224.023438"/>
      <use xlink:href="#DejaVuSans-69" x="276.123047"/>
      <use xlink:href="#DejaVuSans-6e" x="303.90625"/>
      <use xlink:href="#DejaVuSans-67" x="367.285156"/>
      <use xlink:href="#DejaVuSans-6c" x="430.761719"/>
      <use xlink:href="#DejaVuSans-65" x="458.544922"/>
      <use xlink:href="#DejaVuSans-74" x="520.068359"/>
      <use xlink:href="#DejaVuSans-6f" x="559.277344"/>
      <use xlink:href="#DejaVuSans-6e" x="620.458984"/>
      <use xlink:href="#DejaVuSans-73" x="683.837891"/>
     </g>
    </g>
    <g id="line2d_14">
     <path d="M 160.385156 103.500312 
L 170.385156 103.500312 
L 180.385156 103.500312 
" style="fill: none; stroke: #ff7f0e; stroke-width: 1.5; stroke-linecap: square"/>
    </g>
    <g id="text_14">
     <!-- singletons -->
     <g transform="translate(188.385156 107.000312) scale(0.1 -0.1)">
      <use xlink:href="#DejaVuSans-73"/>
      <use xlink:href="#DejaVuSans-69" x="52.099609"/>
      <use xlink:href="#DejaVuSans-6e" x="79.882812"/>
      <use xlink:href="#DejaVuSans-67" x="143.261719"/>
      <use xlink:href="#DejaVuSans-6c" x="206.738281"/>
      <use xlink:href="#DejaVuSans-65" x="234.521484"/>
      <use xlink:href="#DejaVuSans-74" x="296.044922"/>
      <use xlink:href="#DejaVuSans-6f" x="335.253906"/>
      <use xlink:href="#DejaVuSans-6e" x="396.435547"/>
      <use xlink:href="#DejaVuSans-73" x="459.814453"/>
     </g>
    </g>
   </g>
  </g>
 </g>
 <defs>
  <clipPath id="p69b7559789">
   <rect x="43.78125" y="7.2" width="334.8" height="110.88"/>
  </clipPath>
 </defs>
</svg>
