<?xml version="1.0" encoding="utf-8" standalone="no"?>
<!DOCTYPE svg PUBLIC "-//W3C//DTD SVG 1.1//EN"
  "http://www.w3.org/Graphics/SVG/1.1/DTD/svg11.dtd">
<svg xmlns:xlink="http://www.w3.org/1999/xlink" width="385.78125pt" height="155.63625pt" viewBox="0 0 385.78125 155.63625" xmlns="http://www.w3.org/2000/svg" version="1.1">
 <metadata>
  <rdf:RDF xmlns:dc="http://purl.org/dc/elements/1.1/" xmlns:cc="http://creativecommons.org/ns#" xmlns:rdf="http://www.w3.org/1999/02/22-rdf-syntax-ns#">
   <cc:Work>
    <dc:type rdf:resource="http://purl.org/dc/dcmitype/StillImage"/>
    <dc:date>2024-10-19T13:16:02.944401</dc:date>
    <dc:format>image/svg+xml</dc:format>
    <dc:creator>
     <cc:Agent>
      <dc:title>Matplotlib v3.8.2, https://matplotlib.org/</dc:title>
     </cc:Agent>
    </dc:creator>
   </cc:Work>
  </rdf:RDF>
 </metadata>
 <defs>
  <style type="text/css">*{stroke-linejoin: round; stroke-linecap: butt}</style>
 </defs>
 <g id="figure_1">
  <g id="patch_1">
   <path d="M 0 155.63625 
L 385.78125 155.63625 
L 385.78125 0 
L 0 0 
z
" style="fill: #ffffff"/>
  </g>
  <g id="axes_1">
   <g id="patch_2">
    <path d="M 43.78125 118.08 
L 378.58125 118.08 
L 378.58125 7.2 
L 43.78125 7.2 
z
" style="fill: #ffffff"/>
   </g>
   <g id="matplotlib.axis_1">
    <g id="xtick_1">
     <g id="line2d_1">
      <defs>
       <path id="m07ddd5db76" d="M 0 0 
L 0 3.5 
" style="stroke: #000000; stroke-width: 0.8"/>
      </defs>
      <g>
       <use xlink:href="#m07ddd5db76" x="58.999432" y="118.08" style="stroke: #000000; stroke-width: 0.8"/>
      </g>
     </g>
     <g id="text_1">
      <!-- 0.0 -->
      <g transform="translate(51.047869 132.678438) scale(0.1 -0.1)">
       <defs>
        <path id="DejaVuSans-30" d="M 2034 4250 
Q 1547 4250 1301 3770 
Q 1056 3291 1056 2328 
Q 1056 1369 1301 889 
Q 1547 409 2034 409 
Q 2525 409 2770 889 
Q 3016 1369 3016 2328 
Q 3016 3291 2770 3770 
Q 2525 4250 2034 4250 
z
M 2034 4750 
Q 2819 4750 3233 4129 
Q 3647 3509 3647 2328 
Q 3647 1150 3233 529 
Q 2819 -91 2034 -91 
Q 1250 -91 836 529 
Q 422 1150 422 2328 
Q 422 3509 836 4129 
Q 1250 4750 2034 4750 
z
" transform="scale(0.015625)"/>
        <path id="DejaVuSans-2e" d="M 684 794 
L 1344 794 
L 1344 0 
L 684 0 
L 684 794 
z
" transform="scale(0.015625)"/>
       </defs>
       <use xlink:href="#DejaVuSans-30"/>
       <use xlink:href="#DejaVuSans-2e" x="63.623047"/>
       <use xlink:href="#DejaVuSans-30" x="95.410156"/>
      </g>
     </g>
    </g>
    <g id="xtick_2">
     <g id="line2d_2">
      <g>
       <use xlink:href="#m07ddd5db76" x="119.872159" y="118.08" style="stroke: #000000; stroke-width: 0.8"/>
      </g>
     </g>
     <g id="text_2">
      <!-- 0.2 -->
      <g transform="translate(111.920597 132.678438) scale(0.1 -0.1)">
       <defs>
        <path id="DejaVuSans-32" d="M 1228 531 
L 3431 531 
L 3431 0 
L 469 0 
L 469 531 
Q 828 903 1448 1529 
Q 2069 2156 2228 2338 
Q 2531 2678 2651 2914 
Q 2772 3150 2772 3378 
Q 2772 3750 2511 3984 
Q 2250 4219 1831 4219 
Q 1534 4219 1204 4116 
Q 875 4013 500 3803 
L 500 4441 
Q 881 4594 1212 4672 
Q 1544 4750 1819 4750 
Q 2544 4750 2975 4387 
Q 3406 4025 3406 3419 
Q 3406 3131 3298 2873 
Q 3191 2616 2906 2266 
Q 2828 2175 2409 1742 
Q 1991 1309 1228 531 
z
" transform="scale(0.015625)"/>
       </defs>
       <use xlink:href="#DejaVuSans-30"/>
       <use xlink:href="#DejaVuSans-2e" x="63.623047"/>
       <use xlink:href="#DejaVuSans-32" x="95.410156"/>
      </g>
     </g>
    </g>
    <g id="xtick_3">
     <g id="line2d_3">
      <g>
       <use xlink:href="#m07ddd5db76" x="180.744886" y="118.08" style="stroke: #000000; stroke-width: 0.8"/>
      </g>
     </g>
     <g id="text_3">
      <!-- 0.4 -->
      <g transform="translate(172.793324 132.678438) scale(0.1 -0.1)">
       <defs>
        <path id="DejaVuSans-34" d="M 2419 4116 
L 825 1625 
L 2419 1625 
L 2419 4116 
z
M 2253 4666 
L 3047 4666 
L 3047 1625 
L 3713 1625 
L 3713 1100 
L 3047 1100 
L 3047 0 
L 2419 0 
L 2419 1100 
L 313 1100 
L 313 1709 
L 2253 4666 
z
" transform="scale(0.015625)"/>
       </defs>
       <use xlink:href="#DejaVuSans-30"/>
       <use xlink:href="#DejaVuSans-2e" x="63.623047"/>
       <use xlink:href="#DejaVuSans-34" x="95.410156"/>
      </g>
     </g>
    </g>
    <g id="xtick_4">
     <g id="line2d_4">
      <g>
       <use xlink:href="#m07ddd5db76" x="241.617614" y="118.08" style="stroke: #000000; stroke-width: 0.8"/>
      </g>
     </g>
     <g id="text_4">
      <!-- 0.6 -->
      <g transform="translate(233.666051 132.678438) scale(0.1 -0.1)">
       <defs>
        <path id="DejaVuSans-36" d="M 2113 2584 
Q 1688 2584 1439 2293 
Q 1191 2003 1191 1497 
Q 1191 994 1439 701 
Q 1688 409 2113 409 
Q 2538 409 2786 701 
Q 3034 994 3034 1497 
Q 3034 2003 2786 2293 
Q 2538 2584 2113 2584 
z
M 3366 4563 
L 3366 3988 
Q 3128 4100 2886 4159 
Q 2644 4219 2406 4219 
Q 1781 4219 1451 3797 
Q 1122 3375 1075 2522 
Q 1259 2794 1537 2939 
Q 1816 3084 2150 3084 
Q 2853 3084 3261 2657 
Q 3669 2231 3669 1497 
Q 3669 778 3244 343 
Q 2819 -91 2113 -91 
Q 1303 -91 875 529 
Q 447 1150 447 2328 
Q 447 3434 972 4092 
Q 1497 4750 2381 4750 
Q 2619 4750 2861 4703 
Q 3103 4656 3366 4563 
z
" transform="scale(0.015625)"/>
       </defs>
       <use xlink:href="#DejaVuSans-30"/>
       <use xlink:href="#DejaVuSans-2e" x="63.623047"/>
       <use xlink:href="#DejaVuSans-36" x="95.410156"/>
      </g>
     </g>
    </g>
    <g id="xtick_5">
     <g id="line2d_5">
      <g>
       <use xlink:href="#m07ddd5db76" x="302.490341" y="118.08" style="stroke: #000000; stroke-width: 0.8"/>
      </g>
     </g>
     <g id="text_5">
      <!-- 0.8 -->
      <g transform="translate(294.538778 132.678438) scale(0.1 -0.1)">
       <defs>
        <path id="DejaVuSans-38" d="M 2034 2216 
Q 1584 2216 1326 1975 
Q 1069 1734 1069 1313 
Q 1069 891 1326 650 
Q 1584 409 2034 409 
Q 2484 409 2743 651 
Q 3003 894 3003 1313 
Q 3003 1734 2745 1975 
Q 2488 2216 2034 2216 
z
M 1403 2484 
Q 997 2584 770 2862 
Q 544 3141 544 3541 
Q 544 4100 942 4425 
Q 1341 4750 2034 4750 
Q 2731 4750 3128 4425 
Q 3525 4100 3525 3541 
Q 3525 3141 3298 2862 
Q 3072 2584 2669 2484 
Q 3125 2378 3379 2068 
Q 3634 1759 3634 1313 
Q 3634 634 3220 271 
Q 2806 -91 2034 -91 
Q 1263 -91 848 271 
Q 434 634 434 1313 
Q 434 1759 690 2068 
Q 947 2378 1403 2484 
z
M 1172 3481 
Q 1172 3119 1398 2916 
Q 1625 2713 2034 2713 
Q 2441 2713 2670 2916 
Q 2900 3119 2900 3481 
Q 2900 3844 2670 4047 
Q 2441 4250 2034 4250 
Q 1625 4250 1398 4047 
Q 1172 3844 1172 3481 
z
" transform="scale(0.015625)"/>
       </defs>
       <use xlink:href="#DejaVuSans-30"/>
       <use xlink:href="#DejaVuSans-2e" x="63.623047"/>
       <use xlink:href="#DejaVuSans-38" x="95.410156"/>
      </g>
     </g>
    </g>
    <g id="xtick_6">
     <g id="line2d_6">
      <g>
       <use xlink:href="#m07ddd5db76" x="363.363068" y="118.08" style="stroke: #000000; stroke-width: 0.8"/>
      </g>
     </g>
     <g id="text_6">
      <!-- 1.0 -->
      <g transform="translate(355.411506 132.678438) scale(0.1 -0.1)">
       <defs>
        <path id="DejaVuSans-31" d="M 794 531 
L 1825 531 
L 1825 4091 
L 703 3866 
L 703 4441 
L 1819 4666 
L 2450 4666 
L 2450 531 
L 3481 531 
L 3481 0 
L 794 0 
L 794 531 
z
" transform="scale(0.015625)"/>
       </defs>
       <use xlink:href="#DejaVuSans-31"/>
       <use xlink:href="#DejaVuSans-2e" x="63.623047"/>
       <use xlink:href="#DejaVuSans-30" x="95.410156"/>
      </g>
     </g>
    </g>
    <g id="text_7">
     <!-- Normalised gene centre position -->
     <g transform="translate(129.803125 146.356562) scale(0.1 -0.1)">
      <defs>
       <path id="DejaVuSans-4e" d="M 628 4666 
L 1478 4666 
L 3547 763 
L 3547 4666 
L 4159 4666 
L 4159 0 
L 3309 0 
L 1241 3903 
L 1241 0 
L 628 0 
L 628 4666 
z
" transform="scale(0.015625)"/>
       <path id="DejaVuSans-6f" d="M 1959 3097 
Q 1497 3097 1228 2736 
Q 959 2375 959 1747 
Q 959 1119 1226 758 
Q 1494 397 1959 397 
Q 2419 397 2687 759 
Q 2956 1122 2956 1747 
Q 2956 2369 2687 2733 
Q 2419 3097 1959 3097 
z
M 1959 3584 
Q 2709 3584 3137 3096 
Q 3566 2609 3566 1747 
Q 3566 888 3137 398 
Q 2709 -91 1959 -91 
Q 1206 -91 779 398 
Q 353 888 353 1747 
Q 353 2609 779 3096 
Q 1206 3584 1959 3584 
z
" transform="scale(0.015625)"/>
       <path id="DejaVuSans-72" d="M 2631 2963 
Q 2534 3019 2420 3045 
Q 2306 3072 2169 3072 
Q 1681 3072 1420 2755 
Q 1159 2438 1159 1844 
L 1159 0 
L 581 0 
L 581 3500 
L 1159 3500 
L 1159 2956 
Q 1341 3275 1631 3429 
Q 1922 3584 2338 3584 
Q 2397 3584 2469 3576 
Q 2541 3569 2628 3553 
L 2631 2963 
z
" transform="scale(0.015625)"/>
       <path id="DejaVuSans-6d" d="M 3328 2828 
Q 3544 3216 3844 3400 
Q 4144 3584 4550 3584 
Q 5097 3584 5394 3201 
Q 5691 2819 5691 2113 
L 5691 0 
L 5113 0 
L 5113 2094 
Q 5113 2597 4934 2840 
Q 4756 3084 4391 3084 
Q 3944 3084 3684 2787 
Q 3425 2491 3425 1978 
L 3425 0 
L 2847 0 
L 2847 2094 
Q 2847 2600 2669 2842 
Q 2491 3084 2119 3084 
Q 1678 3084 1418 2786 
Q 1159 2488 1159 1978 
L 1159 0 
L 581 0 
L 581 3500 
L 1159 3500 
L 1159 2956 
Q 1356 3278 1631 3431 
Q 1906 3584 2284 3584 
Q 2666 3584 2933 3390 
Q 3200 3197 3328 2828 
z
" transform="scale(0.015625)"/>
       <path id="DejaVuSans-61" d="M 2194 1759 
Q 1497 1759 1228 1600 
Q 959 1441 959 1056 
Q 959 750 1161 570 
Q 1363 391 1709 391 
Q 2188 391 2477 730 
Q 2766 1069 2766 1631 
L 2766 1759 
L 2194 1759 
z
M 3341 1997 
L 3341 0 
L 2766 0 
L 2766 531 
Q 2569 213 2275 61 
Q 1981 -91 1556 -91 
Q 1019 -91 701 211 
Q 384 513 384 1019 
Q 384 1609 779 1909 
Q 1175 2209 1959 2209 
L 2766 2209 
L 2766 2266 
Q 2766 2663 2505 2880 
Q 2244 3097 1772 3097 
Q 1472 3097 1187 3025 
Q 903 2953 641 2809 
L 641 3341 
Q 956 3463 1253 3523 
Q 1550 3584 1831 3584 
Q 2591 3584 2966 3190 
Q 3341 2797 3341 1997 
z
" transform="scale(0.015625)"/>
       <path id="DejaVuSans-6c" d="M 603 4863 
L 1178 4863 
L 1178 0 
L 603 0 
L 603 4863 
z
" transform="scale(0.015625)"/>
       <path id="DejaVuSans-69" d="M 603 3500 
L 1178 3500 
L 1178 0 
L 603 0 
L 603 3500 
z
M 603 4863 
L 1178 4863 
L 1178 4134 
L 603 4134 
L 603 4863 
z
" transform="scale(0.015625)"/>
       <path id="DejaVuSans-73" d="M 2834 3397 
L 2834 2853 
Q 2591 2978 2328 3040 
Q 2066 3103 1784 3103 
Q 1356 3103 1142 2972 
Q 928 2841 928 2578 
Q 928 2378 1081 2264 
Q 1234 2150 1697 2047 
L 1894 2003 
Q 2506 1872 2764 1633 
Q 3022 1394 3022 966 
Q 3022 478 2636 193 
Q 2250 -91 1575 -91 
Q 1294 -91 989 -36 
Q 684 19 347 128 
L 347 722 
Q 666 556 975 473 
Q 1284 391 1588 391 
Q 1994 391 2212 530 
Q 2431 669 2431 922 
Q 2431 1156 2273 1281 
Q 2116 1406 1581 1522 
L 1381 1569 
Q 847 1681 609 1914 
Q 372 2147 372 2553 
Q 372 3047 722 3315 
Q 1072 3584 1716 3584 
Q 2034 3584 2315 3537 
Q 2597 3491 2834 3397 
z
" transform="scale(0.015625)"/>
       <path id="DejaVuSans-65" d="M 3597 1894 
L 3597 1613 
L 953 1613 
Q 991 1019 1311 708 
Q 1631 397 2203 397 
Q 2534 397 2845 478 
Q 3156 559 3463 722 
L 3463 178 
Q 3153 47 2828 -22 
Q 2503 -91 2169 -91 
Q 1331 -91 842 396 
Q 353 884 353 1716 
Q 353 2575 817 3079 
Q 1281 3584 2069 3584 
Q 2775 3584 3186 3129 
Q 3597 2675 3597 1894 
z
M 3022 2063 
Q 3016 2534 2758 2815 
Q 2500 3097 2075 3097 
Q 1594 3097 1305 2825 
Q 1016 2553 972 2059 
L 3022 2063 
z
" transform="scale(0.015625)"/>
       <path id="DejaVuSans-64" d="M 2906 2969 
L 2906 4863 
L 3481 4863 
L 3481 0 
L 2906 0 
L 2906 525 
Q 2725 213 2448 61 
Q 2172 -91 1784 -91 
Q 1150 -91 751 415 
Q 353 922 353 1747 
Q 353 2572 751 3078 
Q 1150 3584 1784 3584 
Q 2172 3584 2448 3432 
Q 2725 3281 2906 2969 
z
M 947 1747 
Q 947 1113 1208 752 
Q 1469 391 1925 391 
Q 2381 391 2643 752 
Q 2906 1113 2906 1747 
Q 2906 2381 2643 2742 
Q 2381 3103 1925 3103 
Q 1469 3103 1208 2742 
Q 947 2381 947 1747 
z
" transform="scale(0.015625)"/>
       <path id="DejaVuSans-20" transform="scale(0.015625)"/>
       <path id="DejaVuSans-67" d="M 2906 1791 
Q 2906 2416 2648 2759 
Q 2391 3103 1925 3103 
Q 1463 3103 1205 2759 
Q 947 2416 947 1791 
Q 947 1169 1205 825 
Q 1463 481 1925 481 
Q 2391 481 2648 825 
Q 2906 1169 2906 1791 
z
M 3481 434 
Q 3481 -459 3084 -895 
Q 2688 -1331 1869 -1331 
Q 1566 -1331 1297 -1286 
Q 1028 -1241 775 -1147 
L 775 -588 
Q 1028 -725 1275 -790 
Q 1522 -856 1778 -856 
Q 2344 -856 2625 -561 
Q 2906 -266 2906 331 
L 2906 616 
Q 2728 306 2450 153 
Q 2172 0 1784 0 
Q 1141 0 747 490 
Q 353 981 353 1791 
Q 353 2603 747 3093 
Q 1141 3584 1784 3584 
Q 2172 3584 2450 3431 
Q 2728 3278 2906 2969 
L 2906 3500 
L 3481 3500 
L 3481 434 
z
" transform="scale(0.015625)"/>
       <path id="DejaVuSans-6e" d="M 3513 2113 
L 3513 0 
L 2938 0 
L 2938 2094 
Q 2938 2591 2744 2837 
Q 2550 3084 2163 3084 
Q 1697 3084 1428 2787 
Q 1159 2491 1159 1978 
L 1159 0 
L 581 0 
L 581 3500 
L 1159 3500 
L 1159 2956 
Q 1366 3272 1645 3428 
Q 1925 3584 2291 3584 
Q 2894 3584 3203 3211 
Q 3513 2838 3513 2113 
z
" transform="scale(0.015625)"/>
       <path id="DejaVuSans-63" d="M 3122 3366 
L 3122 2828 
Q 2878 2963 2633 3030 
Q 2388 3097 2138 3097 
Q 1578 3097 1268 2742 
Q 959 2388 959 1747 
Q 959 1106 1268 751 
Q 1578 397 2138 397 
Q 2388 397 2633 464 
Q 2878 531 3122 666 
L 3122 134 
Q 2881 22 2623 -34 
Q 2366 -91 2075 -91 
Q 1284 -91 818 406 
Q 353 903 353 1747 
Q 353 2603 823 3093 
Q 1294 3584 2113 3584 
Q 2378 3584 2631 3529 
Q 2884 3475 3122 3366 
z
" transform="scale(0.015625)"/>
       <path id="DejaVuSans-74" d="M 1172 4494 
L 1172 3500 
L 2356 3500 
L 2356 3053 
L 1172 3053 
L 1172 1153 
Q 1172 725 1289 603 
Q 1406 481 1766 481 
L 2356 481 
L 2356 0 
L 1766 0 
Q 1100 0 847 248 
Q 594 497 594 1153 
L 594 3053 
L 172 3053 
L 172 3500 
L 594 3500 
L 594 4494 
L 1172 4494 
z
" transform="scale(0.015625)"/>
       <path id="DejaVuSans-70" d="M 1159 525 
L 1159 -1331 
L 581 -1331 
L 581 3500 
L 1159 3500 
L 1159 2969 
Q 1341 3281 1617 3432 
Q 1894 3584 2278 3584 
Q 2916 3584 3314 3078 
Q 3713 2572 3713 1747 
Q 3713 922 3314 415 
Q 2916 -91 2278 -91 
Q 1894 -91 1617 61 
Q 1341 213 1159 525 
z
M 3116 1747 
Q 3116 2381 2855 2742 
Q 2594 3103 2138 3103 
Q 1681 3103 1420 2742 
Q 1159 2381 1159 1747 
Q 1159 1113 1420 752 
Q 1681 391 2138 391 
Q 2594 391 2855 752 
Q 3116 1113 3116 1747 
z
" transform="scale(0.015625)"/>
      </defs>
      <use xlink:href="#DejaVuSans-4e"/>
      <use xlink:href="#DejaVuSans-6f" x="74.804688"/>
      <use xlink:href="#DejaVuSans-72" x="135.986328"/>
      <use xlink:href="#DejaVuSans-6d" x="175.349609"/>
      <use xlink:href="#DejaVuSans-61" x="272.761719"/>
      <use xlink:href="#DejaVuSans-6c" x="334.041016"/>
      <use xlink:href="#DejaVuSans-69" x="361.824219"/>
      <use xlink:href="#DejaVuSans-73" x="389.607422"/>
      <use xlink:href="#DejaVuSans-65" x="441.707031"/>
      <use xlink:href="#DejaVuSans-64" x="503.230469"/>
      <use xlink:href="#DejaVuSans-20" x="566.707031"/>
      <use xlink:href="#DejaVuSans-67" x="598.494141"/>
      <use xlink:href="#DejaVuSans-65" x="661.970703"/>
      <use xlink:href="#DejaVuSans-6e" x="723.494141"/>
      <use xlink:href="#DejaVuSans-65" x="786.873047"/>
      <use xlink:href="#DejaVuSans-20" x="848.396484"/>
      <use xlink:href="#DejaVuSans-63" x="880.183594"/>
      <use xlink:href="#DejaVuSans-65" x="935.164062"/>
      <use xlink:href="#DejaVuSans-6e" x="996.6875"/>
      <use xlink:href="#DejaVuSans-74" x="1060.066406"/>
      <use xlink:href="#DejaVuSans-72" x="1099.275391"/>
      <use xlink:href="#DejaVuSans-65" x="1138.138672"/>
      <use xlink:href="#DejaVuSans-20" x="1199.662109"/>
      <use xlink:href="#DejaVuSans-70" x="1231.449219"/>
      <use xlink:href="#DejaVuSans-6f" x="1294.925781"/>
      <use xlink:href="#DejaVuSans-73" x="1356.107422"/>
      <use xlink:href="#DejaVuSans-69" x="1408.207031"/>
      <use xlink:href="#DejaVuSans-74" x="1435.990234"/>
      <use xlink:href="#DejaVuSans-69" x="1475.199219"/>
      <use xlink:href="#DejaVuSans-6f" x="1502.982422"/>
      <use xlink:href="#DejaVuSans-6e" x="1564.164062"/>
     </g>
    </g>
   </g>
   <g id="matplotlib.axis_2">
    <g id="ytick_1">
     <g id="line2d_7">
      <defs>
       <path id="m608683d99c" d="M 0 0 
L -3.5 0 
" style="stroke: #000000; stroke-width: 0.8"/>
      </defs>
      <g>
       <use xlink:href="#m608683d99c" x="43.78125" y="117.427608" style="stroke: #000000; stroke-width: 0.8"/>
      </g>
     </g>
     <g id="text_8">
      <!-- 0.2 -->
      <g transform="translate(20.878125 121.226827) scale(0.1 -0.1)">
       <use xlink:href="#DejaVuSans-30"/>
       <use xlink:href="#DejaVuSans-2e" x="63.623047"/>
       <use xlink:href="#DejaVuSans-32" x="95.410156"/>
      </g>
     </g>
    </g>
    <g id="ytick_2">
     <g id="line2d_8">
      <g>
       <use xlink:href="#m608683d99c" x="43.78125" y="91.130706" style="stroke: #000000; stroke-width: 0.8"/>
      </g>
     </g>
     <g id="text_9">
      <!-- 0.4 -->
      <g transform="translate(20.878125 94.929925) scale(0.1 -0.1)">
       <use xlink:href="#DejaVuSans-30"/>
       <use xlink:href="#DejaVuSans-2e" x="63.623047"/>
       <use xlink:href="#DejaVuSans-34" x="95.410156"/>
      </g>
     </g>
    </g>
    <g id="ytick_3">
     <g id="line2d_9">
      <g>
       <use xlink:href="#m608683d99c" x="43.78125" y="64.833804" style="stroke: #000000; stroke-width: 0.8"/>
      </g>
     </g>
     <g id="text_10">
      <!-- 0.6 -->
      <g transform="translate(20.878125 68.633023) scale(0.1 -0.1)">
       <use xlink:href="#DejaVuSans-30"/>
       <use xlink:href="#DejaVuSans-2e" x="63.623047"/>
       <use xlink:href="#DejaVuSans-36" x="95.410156"/>
      </g>
     </g>
    </g>
    <g id="ytick_4">
     <g id="line2d_10">
      <g>
       <use xlink:href="#m608683d99c" x="43.78125" y="38.536902" style="stroke: #000000; stroke-width: 0.8"/>
      </g>
     </g>
     <g id="text_11">
      <!-- 0.8 -->
      <g transform="translate(20.878125 42.336121) scale(0.1 -0.1)">
       <use xlink:href="#DejaVuSans-30"/>
       <use xlink:href="#DejaVuSans-2e" x="63.623047"/>
       <use xlink:href="#DejaVuSans-38" x="95.410156"/>
      </g>
     </g>
    </g>
    <g id="ytick_5">
     <g id="line2d_11">
      <g>
       <use xlink:href="#m608683d99c" x="43.78125" y="12.24" style="stroke: #000000; stroke-width: 0.8"/>
      </g>
     </g>
     <g id="text_12">
      <!-- 1.0 -->
      <g transform="translate(20.878125 16.039219) scale(0.1 -0.1)">
       <use xlink:href="#DejaVuSans-31"/>
       <use xlink:href="#DejaVuSans-2e" x="63.623047"/>
       <use xlink:href="#DejaVuSans-30" x="95.410156"/>
      </g>
     </g>
    </g>
    <g id="text_13">
     <!-- Normalized Density -->
     <g transform="translate(14.798438 111.593125) rotate(-90) scale(0.1 -0.1)">
      <defs>
       <path id="DejaVuSans-7a" d="M 353 3500 
L 3084 3500 
L 3084 2975 
L 922 459 
L 3084 459 
L 3084 0 
L 275 0 
L 275 525 
L 2438 3041 
L 353 3041 
L 353 3500 
z
" transform="scale(0.015625)"/>
       <path id="DejaVuSans-44" d="M 1259 4147 
L 1259 519 
L 2022 519 
Q 2988 519 3436 956 
Q 3884 1394 3884 2338 
Q 3884 3275 3436 3711 
Q 2988 4147 2022 4147 
L 1259 4147 
z
M 628 4666 
L 1925 4666 
Q 3281 4666 3915 4102 
Q 4550 3538 4550 2338 
Q 4550 1131 3912 565 
Q 3275 0 1925 0 
L 628 0 
L 628 4666 
z
" transform="scale(0.015625)"/>
       <path id="DejaVuSans-79" d="M 2059 -325 
Q 1816 -950 1584 -1140 
Q 1353 -1331 966 -1331 
L 506 -1331 
L 506 -850 
L 844 -850 
Q 1081 -850 1212 -737 
Q 1344 -625 1503 -206 
L 1606 56 
L 191 3500 
L 800 3500 
L 1894 763 
L 2988 3500 
L 3597 3500 
L 2059 -325 
z
" transform="scale(0.015625)"/>
      </defs>
      <use xlink:href="#DejaVuSans-4e"/>
      <use xlink:href="#DejaVuSans-6f" x="74.804688"/>
      <use xlink:href="#DejaVuSans-72" x="135.986328"/>
      <use xlink:href="#DejaVuSans-6d" x="175.349609"/>
      <use xlink:href="#DejaVuSans-61" x="272.761719"/>
      <use xlink:href="#DejaVuSans-6c" x="334.041016"/>
      <use xlink:href="#DejaVuSans-69" x="361.824219"/>
      <use xlink:href="#DejaVuSans-7a" x="389.607422"/>
      <use xlink:href="#DejaVuSans-65" x="442.097656"/>
      <use xlink:href="#DejaVuSans-64" x="503.621094"/>
      <use xlink:href="#DejaVuSans-20" x="567.097656"/>
      <use xlink:href="#DejaVuSans-44" x="598.884766"/>
      <use xlink:href="#DejaVuSans-65" x="675.886719"/>
      <use xlink:href="#DejaVuSans-6e" x="737.410156"/>
      <use xlink:href="#DejaVuSans-73" x="800.789062"/>
      <use xlink:href="#DejaVuSans-69" x="852.888672"/>
      <use xlink:href="#DejaVuSans-74" x="880.671875"/>
      <use xlink:href="#DejaVuSans-79" x="919.880859"/>
     </g>
    </g>
   </g>
   <g id="line2d_12">
    <path d="M 58.999432 104.328197 
L 62.655451 88.711841 
L 66.006803 74.713397 
L 68.139481 66.740027 
L 69.967491 60.784341 
L 71.490832 56.540442 
L 73.014174 52.987209 
L 74.232847 50.641258 
L 75.45152 48.719841 
L 76.670193 47.194974 
L 77.888867 46.029322 
L 79.10754 45.178742 
L 80.326213 44.595002 
L 81.544886 44.228472 
L 83.068228 44.002097 
L 84.896238 43.956525 
L 88.856926 44.168461 
L 91.903609 44.232962 
L 94.645623 44.057078 
L 97.08297 43.678966 
L 99.824985 43.017577 
L 103.785673 41.789115 
L 107.441692 40.723497 
L 109.879039 40.234587 
L 112.316385 39.969337 
L 115.972405 39.838234 
L 119.019088 39.659177 
L 121.151766 39.327096 
L 123.284444 38.762391 
L 125.721791 37.848249 
L 133.338498 34.694596 
L 135.166508 34.340067 
L 136.68985 34.277966 
L 138.213191 34.45337 
L 139.736533 34.874465 
L 141.259874 35.532932 
L 143.087884 36.600112 
L 145.220562 38.133838 
L 152.227933 43.476719 
L 154.055943 44.520149 
L 155.883953 45.319371 
L 157.711963 45.866814 
L 159.539972 46.173065 
L 161.367982 46.258791 
L 163.50066 46.111429 
L 165.633338 45.729601 
L 168.070685 45.039171 
L 170.508031 44.103392 
L 172.945378 42.940399 
L 175.687393 41.375688 
L 178.429407 39.552105 
L 181.47609 37.23853 
L 184.522773 34.641428 
L 187.569456 31.764585 
L 190.616139 28.572482 
L 193.358154 25.386732 
L 197.014174 20.743988 
L 200.365525 16.541118 
L 202.193535 14.594504 
L 203.412208 13.553551 
L 204.630881 12.784258 
L 205.544886 12.416617 
L 206.458891 12.248892 
L 207.372896 12.295335 
L 208.286901 12.565575 
L 209.200906 13.064103 
L 210.114911 13.790009 
L 211.333584 15.09985 
L 212.552257 16.772704 
L 214.075599 19.306249 
L 215.903609 22.846542 
L 218.950292 29.372104 
L 221.996975 35.766875 
L 223.824985 39.162387 
L 225.348326 41.606375 
L 226.871668 43.635942 
L 228.090341 44.934725 
L 229.309014 45.933004 
L 230.527687 46.628789 
L 231.746361 47.028496 
L 232.965034 47.147061 
L 234.183707 47.007989 
L 235.40238 46.643188 
L 236.925722 45.931089 
L 239.0584 44.625646 
L 242.71442 42.326505 
L 244.237761 41.625583 
L 245.761103 41.194805 
L 246.979776 41.076182 
L 248.198449 41.167809 
L 249.417122 41.463121 
L 250.940464 42.086636 
L 252.768474 43.118447 
L 258.557171 46.687133 
L 260.080513 47.280077 
L 261.603854 47.610983 
L 262.822528 47.670875 
L 264.041201 47.546388 
L 265.564542 47.14122 
L 267.087884 46.48181 
L 268.915894 45.40121 
L 271.048572 43.820964 
L 273.485918 41.713373 
L 278.665279 36.811406 
L 281.102626 34.692873 
L 282.930636 33.388123 
L 284.453977 32.583978 
L 285.67265 32.174643 
L 286.891324 32.005457 
L 288.109997 32.098503 
L 289.32867 32.466242 
L 290.547343 33.109799 
L 291.766017 34.018095 
L 293.289358 35.489369 
L 295.117368 37.653487 
L 297.554714 40.953221 
L 301.515402 46.330724 
L 303.343412 48.452802 
L 304.866754 49.934448 
L 306.390095 51.114721 
L 307.913437 51.97198 
L 309.13211 52.41861 
L 310.350783 52.651907 
L 311.569456 52.674429 
L 312.78813 52.491469 
L 314.006803 52.11126 
L 315.530144 51.377047 
L 317.053486 50.386813 
L 318.881496 48.928838 
L 322.537515 45.606838 
L 324.670193 43.837371 
L 326.193535 42.852594 
L 327.412208 42.309137 
L 328.630881 42.028884 
L 329.544886 42.010561 
L 330.458891 42.166317 
L 331.372896 42.499966 
L 332.591569 43.219606 
L 333.810243 44.239817 
L 335.028916 45.534723 
L 336.552257 47.485808 
L 338.380267 50.209999 
L 340.817614 54.276762 
L 344.168965 60.335619 
L 347.215648 66.282277 
L 349.652994 71.549482 
L 351.785673 76.710378 
L 353.918351 82.485687 
L 356.355697 89.831135 
L 359.40238 99.834889 
L 363.363068 113.04 
L 363.363068 113.04 
" clip-path="url(#pa7d1fb22a1)" style="fill: none; stroke: #1f77b4; stroke-width: 1.5; stroke-linecap: square"/>
   </g>
   <g id="line2d_13">
    <path d="M 58.999432 86.17379 
L 69.358154 52.126986 
L 72.100169 44.112252 
L 74.537515 37.644782 
L 76.670193 32.560795 
L 78.802872 28.050287 
L 80.630881 24.654281 
L 82.458891 21.695063 
L 84.286901 19.16822 
L 86.114911 17.06378 
L 87.638252 15.622447 
L 89.161594 14.454228 
L 90.684936 13.547469 
L 92.208277 12.889358 
L 93.731619 12.466094 
L 95.25496 12.263015 
L 96.778302 12.264676 
L 98.606311 12.514132 
L 100.434321 13.005969 
L 102.566999 13.845628 
L 104.699678 14.924232 
L 107.441692 16.58067 
L 111.097712 19.089287 
L 119.933093 25.28336 
L 123.284444 27.317302 
L 126.635795 29.081271 
L 129.987147 30.582459 
L 133.947835 32.087012 
L 140.650537 34.323524 
L 146.743904 36.449624 
L 152.83727 38.830521 
L 160.758646 41.919873 
L 165.024002 43.322631 
L 168.98469 44.377659 
L 173.250046 45.265221 
L 179.343412 46.262025 
L 186.655451 47.489157 
L 190.920808 48.422604 
L 194.881496 49.515933 
L 198.537515 50.75293 
L 202.193535 52.223502 
L 206.154223 54.072838 
L 210.724248 56.480007 
L 222.91098 63.091058 
L 225.957663 64.405776 
L 228.699678 65.345551 
L 231.137024 65.945943 
L 233.269702 66.265621 
L 235.40238 66.376611 
L 237.535058 66.267186 
L 239.667736 65.930325 
L 241.800415 65.364336 
L 243.933093 64.573471 
L 246.370439 63.408384 
L 248.807786 61.991035 
L 251.5498 60.144281 
L 255.20582 57.391535 
L 263.736533 50.845689 
L 266.478547 49.056652 
L 268.915894 47.699391 
L 271.35324 46.589689 
L 273.790587 45.734326 
L 276.227933 45.119895 
L 278.969948 44.676168 
L 282.321299 44.391522 
L 292.375353 43.739662 
L 295.422036 43.205692 
L 298.164051 42.502341 
L 300.906066 41.582685 
L 303.952749 40.32805 
L 307.608768 38.564786 
L 313.092798 35.630252 
L 319.186164 32.428591 
L 322.537515 30.907042 
L 325.27953 29.889873 
L 327.716877 29.221614 
L 329.849555 28.868625 
L 331.677564 28.775105 
L 333.505574 28.908739 
L 335.028916 29.2187 
L 336.552257 29.731559 
L 338.075599 30.468541 
L 339.59894 31.450508 
L 341.122282 32.697263 
L 342.645623 34.226767 
L 344.168965 36.054308 
L 345.692307 38.191665 
L 347.520316 41.175594 
L 349.348326 44.619253 
L 351.176336 48.51379 
L 353.309014 53.59742 
L 355.746361 60.04677 
L 358.488375 67.967152 
L 362.449063 80.192996 
L 363.363068 83.073006 
L 363.363068 83.073006 
" clip-path="url(#pa7d1fb22a1)" style="fill: none; stroke: #ff7f0e; stroke-width: 1.5; stroke-linecap: square"/>
   </g>
   <g id="patch_3">
    <path d="M 43.78125 118.08 
L 43.78125 7.2 
" style="fill: none; stroke: #000000; stroke-width: 0.8; stroke-linejoin: miter; stroke-linecap: square"/>
   </g>
   <g id="patch_4">
    <path d="M 378.58125 118.08 
L 378.58125 7.2 
" style="fill: none; stroke: #000000; stroke-width: 0.8; stroke-linejoin: miter; stroke-linecap: square"/>
   </g>
   <g id="patch_5">
    <path d="M 43.78125 118.08 
L 378.58125 118.08 
" style="fill: none; stroke: #000000; stroke-width: 0.8; stroke-linejoin: miter; stroke-linecap: square"/>
   </g>
   <g id="patch_6">
    <path d="M 43.78125 7.2 
L 378.58125 7.2 
" style="fill: none; stroke: #000000; stroke-width: 0.8; stroke-linejoin: miter; stroke-linecap: square"/>
   </g>
   <g id="legend_1">
    <g id="patch_7">
     <path d="M 128.674219 113.08 
L 293.688281 113.08 
Q 295.688281 113.08 295.688281 111.08 
L 295.688281 82.72375 
Q 295.688281 80.72375 293.688281 80.72375 
L 128.674219 80.72375 
Q 126.674219 80.72375 126.674219 82.72375 
L 126.674219 111.08 
Q 126.674219 113.08 128.674219 113.08 
z
" style="fill: #ffffff; opacity: 0.8; stroke: #cccccc; stroke-linejoin: miter"/>
    </g>
    <g id="line2d_14">
     <path d="M 130.674219 88.822187 
L 140.674219 88.822187 
L 150.674219 88.822187 
" style="fill: none; stroke: #1f77b4; stroke-width: 1.5; stroke-linecap: square"/>
    </g>
    <g id="text_14">
     <!-- non-singletons on network -->
     <g transform="translate(158.674219 92.322187) scale(0.1 -0.1)">
      <defs>
       <path id="DejaVuSans-2d" d="M 313 2009 
L 1997 2009 
L 1997 1497 
L 313 1497 
L 313 2009 
z
" transform="scale(0.015625)"/>
       <path id="DejaVuSans-77" d="M 269 3500 
L 844 3500 
L 1563 769 
L 2278 3500 
L 2956 3500 
L 3675 769 
L 4391 3500 
L 4966 3500 
L 4050 0 
L 3372 0 
L 2619 2869 
L 1863 0 
L 1184 0 
L 269 3500 
z
" transform="scale(0.015625)"/>
       <path id="DejaVuSans-6b" d="M 581 4863 
L 1159 4863 
L 1159 1991 
L 2875 3500 
L 3609 3500 
L 1753 1863 
L 3688 0 
L 2938 0 
L 1159 1709 
L 1159 0 
L 581 0 
L 581 4863 
z
" transform="scale(0.015625)"/>
      </defs>
      <use xlink:href="#DejaVuSans-6e"/>
      <use xlink:href="#DejaVuSans-6f" x="63.378906"/>
      <use xlink:href="#DejaVuSans-6e" x="124.560547"/>
      <use xlink:href="#DejaVuSans-2d" x="187.939453"/>
      <use xlink:href="#DejaVuSans-73" x="224.023438"/>
      <use xlink:href="#DejaVuSans-69" x="276.123047"/>
      <use xlink:href="#DejaVuSans-6e" x="303.90625"/>
      <use xlink:href="#DejaVuSans-67" x="367.285156"/>
      <use xlink:href="#DejaVuSans-6c" x="430.761719"/>
      <use xlink:href="#DejaVuSans-65" x="458.544922"/>
      <use xlink:href="#DejaVuSans-74" x="520.068359"/>
      <use xlink:href="#DejaVuSans-6f" x="559.277344"/>
      <use xlink:href="#DejaVuSans-6e" x="620.458984"/>
      <use xlink:href="#DejaVuSans-73" x="683.837891"/>
      <use xlink:href="#DejaVuSans-20" x="735.9375"/>
      <use xlink:href="#DejaVuSans-6f" x="767.724609"/>
      <use xlink:href="#DejaVuSans-6e" x="828.90625"/>
      <use xlink:href="#DejaVuSans-20" x="892.285156"/>
      <use xlink:href="#DejaVuSans-6e" x="924.072266"/>
      <use xlink:href="#DejaVuSans-65" x="987.451172"/>
      <use xlink:href="#DejaVuSans-74" x="1048.974609"/>
      <use xlink:href="#DejaVuSans-77" x="1088.183594"/>
      <use xlink:href="#DejaVuSans-6f" x="1169.970703"/>
      <use xlink:href="#DejaVuSans-72" x="1231.152344"/>
      <use xlink:href="#DejaVuSans-6b" x="1272.265625"/>
     </g>
    </g>
    <g id="line2d_15">
     <path d="M 130.674219 103.500312 
L 140.674219 103.500312 
L 150.674219 103.500312 
" style="fill: none; stroke: #ff7f0e; stroke-width: 1.5; stroke-linecap: square"/>
    </g>
    <g id="text_15">
     <!-- singletons not on network -->
     <g transform="translate(158.674219 107.000312) scale(0.1 -0.1)">
      <use xlink:href="#DejaVuSans-73"/>
      <use xlink:href="#DejaVuSans-69" x="52.099609"/>
      <use xlink:href="#DejaVuSans-6e" x="79.882812"/>
      <use xlink:href="#DejaVuSans-67" x="143.261719"/>
      <use xlink:href="#DejaVuSans-6c" x="206.738281"/>
      <use xlink:href="#DejaVuSans-65" x="234.521484"/>
      <use xlink:href="#DejaVuSans-74" x="296.044922"/>
      <use xlink:href="#DejaVuSans-6f" x="335.253906"/>
      <use xlink:href="#DejaVuSans-6e" x="396.435547"/>
      <use xlink:href="#DejaVuSans-73" x="459.814453"/>
      <use xlink:href="#DejaVuSans-20" x="511.914062"/>
      <use xlink:href="#DejaVuSans-6e" x="543.701172"/>
      <use xlink:href="#DejaVuSans-6f" x="607.080078"/>
      <use xlink:href="#DejaVuSans-74" x="668.261719"/>
      <use xlink:href="#DejaVuSans-20" x="707.470703"/>
      <use xlink:href="#DejaVuSans-6f" x="739.257812"/>
      <use xlink:href="#DejaVuSans-6e" x="800.439453"/>
      <use xlink:href="#DejaVuSans-20" x="863.818359"/>
      <use xlink:href="#DejaVuSans-6e" x="895.605469"/>
      <use xlink:href="#DejaVuSans-65" x="958.984375"/>
      <use xlink:href="#DejaVuSans-74" x="1020.507812"/>
      <use xlink:href="#DejaVuSans-77" x="1059.716797"/>
      <use xlink:href="#DejaVuSans-6f" x="1141.503906"/>
      <use xlink:href="#DejaVuSans-72" x="1202.685547"/>
      <use xlink:href="#DejaVuSans-6b" x="1243.798828"/>
     </g>
    </g>
   </g>
  </g>
 </g>
 <defs>
  <clipPath id="pa7d1fb22a1">
   <rect x="43.78125" y="7.2" width="334.8" height="110.88"/>
  </clipPath>
 </defs>
</svg>
